<?xml version="1.0" encoding="UTF-8"?>
<svg id="PATTERN" xmlns="http://www.w3.org/2000/svg" xmlns:xlink="http://www.w3.org/1999/xlink" viewBox="0 0 500 500">
  <defs>
    <style>
      .cls-1 {
        fill: #272525;
      }

      .cls-1, .cls-2, .cls-3, .cls-4, .cls-5, .cls-6, .cls-7, .cls-8, .cls-9, .cls-10, .cls-11, .cls-12 {
        stroke-width: 0px;
      }

      .cls-1, .cls-13 {
        opacity: .3;
      }

      .cls-14 {
        opacity: .6;
      }

      .cls-14, .cls-13 {
        mix-blend-mode: overlay;
      }

      .cls-2, .cls-15, .cls-16, .cls-17, .cls-18, .cls-19, .cls-20, .cls-21, .cls-22, .cls-23, .cls-24, .cls-25, .cls-26, .cls-27 {
        fill: none;
      }

      .cls-15 {
        stroke-dasharray: 0 6.49;
        stroke-width: 2.16px;
      }

      .cls-15, .cls-16, .cls-17, .cls-18, .cls-19, .cls-20, .cls-21, .cls-22, .cls-24, .cls-25, .cls-26, .cls-27 {
        stroke: #fff;
      }

      .cls-15, .cls-23 {
        stroke-linecap: round;
        stroke-linejoin: round;
      }

      .cls-16 {
        stroke-width: .63px;
      }

      .cls-16, .cls-17, .cls-18, .cls-19, .cls-20, .cls-21, .cls-22, .cls-24, .cls-25, .cls-26, .cls-27 {
        stroke-miterlimit: 10;
      }

      .cls-3 {
        fill: #0f0e0e;
        opacity: .74;
      }

      .cls-17 {
        stroke-width: .66px;
      }

      .cls-18 {
        stroke-width: .62px;
      }

      .cls-4 {
        fill: #0a0909;
        opacity: .83;
      }

      .cls-19 {
        stroke-width: .61px;
      }

      .cls-5 {
        fill: #000;
      }

      .cls-6 {
        fill: url(#New_Pattern);
      }

      .cls-7 {
        fill: #050505;
        opacity: .91;
      }

      .cls-8 {
        fill: #222020;
        opacity: .39;
      }

      .cls-20 {
        stroke-width: .7px;
      }

      .cls-21 {
        stroke-width: .71px;
      }

      .cls-9 {
        fill: #181717;
        opacity: .56;
      }

      .cls-22 {
        stroke-width: .72px;
      }

      .cls-23 {
        stroke: #272525;
        stroke-dasharray: 0 4.67;
        stroke-width: 1.56px;
      }

      .cls-24 {
        stroke-width: .68px;
      }

      .cls-25 {
        stroke-width: .67px;
      }

      .cls-26 {
        stroke-width: .65px;
      }

      .cls-10 {
        fill: #fff;
      }

      .cls-11 {
        fill: #131212;
        opacity: .65;
      }

      .cls-12 {
        fill: #1d1c1c;
        opacity: .48;
      }

      .cls-27 {
        stroke-width: .8px;
      }
    </style>
    <pattern id="New_Pattern" data-name="New Pattern" x="0" y="0" width="491" height="518" patternTransform="translate(-133.72 -229.94)" patternUnits="userSpaceOnUse" viewBox="0 0 491 518">
      <g>
        <rect class="cls-2" width="491" height="518"/>
        <g class="cls-14">
          <path class="cls-27" d="M758.58,607.17c-10.2-10.97-26.24-14.06-41.2-14.97-15.43-.94-30.96-.19-46.34-1.77-15.38-1.58-30.98-5.71-43.17-15.22-9.02-7.04-15.67-16.61-23.7-24.77-12.86-13.08-29.1-22.36-45.89-29.74-11.13-4.89-22.82-9.06-34.96-9.7-21.52-1.13-43.47,10.01-54.56,28.49-11.09,18.48-10.39,43.6,2.38,60.96,11.28,15.34,29.93,23.59,42.53,37.86,19.34,21.92,22.17,55.28,42.92,75.87,11.48,11.39,27.89,17.63,44.03,16.73,8.98-.5,17.73-3.08,26.68-4.04,36.56-3.91,74.21,19.19,108.94,7.12,23-7.99,37.83-31.56,39.72-55.29,1.72-21.53-2.2-55.22-17.39-71.55Z"/>
        </g>
        <g>
          <g class="cls-13">
            <g>
              <path class="cls-1" d="M532.32,718.68c-5.28,3.25-10.81,6.03-16.43,8.65-35.74,15.83-103.55,24.18-131.47,1.23-27.92-22.95-11.76-44.64-42.34-74.69-30.58-30.05-28.01-80.5,6.21-116.95,34.23-36.46,58.87-11,79.59-17.67,20.73-6.67,47.58-25.33,74.56-2.35,6.33,5.97,11.1,15.04,13.62,23.01h0c.14.53.3,1.05.47,1.56.57,1.75,1.31,3.45,2.33,5,4.22,6.43,12.23,8.96,19.31,11.99,11.97,5.11,23.01,13.08,30.01,24.05,7,10.97,9.5,25.17,4.86,37.33-3.04,7.96-8.89,14.7-11.36,22.86-3.77,12.47.9,26-1.05,38.88-2.4,15.88-14.63,28.69-28.31,37.11Z"/>
              <path class="cls-8" d="M431.57,530.13c18.9-5.84,42.94-22.6,67.06-2.8,5.75,5.1,10.13,12.94,12.55,19.92,0,0,0,0,0,0,.14.46.29.92.45,1.37.56,1.53,1.23,3.03,2.17,4.4,3.85,5.67,11.02,7.97,17.39,10.79,10.68,4.67,20.49,11.84,26.7,21.63,6.23,9.84,8.46,22.5,4.4,33.37-2.67,7.12-7.8,13.18-9.99,20.48-3.33,11.14.71,23.22-1.01,34.75-2.12,14.18-12.97,25.44-24.71,33.37-4.6,3.11-9.41,5.96-14.46,8.45-12.37,6.1-29.73,10.43-47.24,12.13-27.82,2.7-57.77,1.31-73.62-12.29-24.3-20.85-10.53-39.8-37.12-66.49-26.65-26.76-23.87-71.36,6.66-103.47,30.31-32.03,52.23-9.88,70.77-15.61Z"/>
            </g>
          </g>
          <g class="cls-14">
            <path class="cls-27" d="M267.58,607.17c-10.2-10.97-26.24-14.06-41.2-14.97-15.43-.94-30.96-.19-46.34-1.77-15.38-1.58-30.98-5.71-43.17-15.22-9.02-7.04-15.67-16.61-23.7-24.77-12.86-13.08-29.1-22.36-45.89-29.74-11.13-4.89-22.82-9.06-34.96-9.7-21.52-1.13-43.47,10.01-54.56,28.49-11.09,18.48-10.39,43.6,2.38,60.96,11.28,15.34,29.93,23.59,42.53,37.86,19.34,21.92,22.17,55.28,42.92,75.87,11.48,11.39,27.89,17.63,44.03,16.73,8.98-.5,17.73-3.08,26.68-4.04,36.56-3.91,74.21,19.19,108.94,7.12,23-7.99,37.83-31.56,39.72-55.29,1.72-21.53-2.2-55.22-17.39-71.55Z"/>
          </g>
        </g>
        <g class="cls-13">
          <g>
            <path class="cls-1" d="M41.32,718.68c-5.28,3.25-10.81,6.03-16.43,8.65-35.74,15.83-103.55,24.18-131.47,1.23-27.92-22.95-11.76-44.64-42.34-74.69-30.58-30.05-28.01-80.5,6.21-116.95,34.23-36.46,58.87-11,79.59-17.67,20.73-6.67,47.58-25.33,74.56-2.35,6.33,5.97,11.1,15.04,13.62,23.01h0c.14.53.3,1.05.47,1.56.57,1.75,1.31,3.45,2.33,5,4.22,6.43,12.23,8.96,19.31,11.99,11.97,5.11,23.01,13.08,30.01,24.05,7,10.97,9.5,25.17,4.86,37.33-3.04,7.96-8.89,14.7-11.36,22.86-3.77,12.47.9,26-1.05,38.88-2.4,15.88-14.63,28.69-28.31,37.11Z"/>
            <path class="cls-8" d="M-59.43,530.13c18.9-5.84,42.94-22.6,67.06-2.8,5.75,5.1,10.13,12.94,12.55,19.92,0,0,0,0,0,0,.14.46.29.92.45,1.37.56,1.53,1.23,3.03,2.17,4.4,3.85,5.67,11.02,7.97,17.39,10.79,10.68,4.67,20.49,11.84,26.7,21.63,6.23,9.84,8.46,22.5,4.4,33.37-2.67,7.12-7.8,13.18-9.99,20.48-3.33,11.14.71,23.22-1.01,34.75-2.12,14.18-12.97,25.44-24.71,33.37-4.6,3.11-9.41,5.96-14.46,8.45-12.37,6.1-29.73,10.43-47.24,12.13-27.82,2.7-57.77,1.31-73.62-12.29-24.3-20.85-10.53-39.8-37.12-66.49-26.65-26.76-23.87-71.36,6.66-103.47,30.31-32.03,52.23-9.88,70.77-15.61Z"/>
          </g>
        </g>
        <g>
          <g class="cls-13">
            <path class="cls-1" d="M739.44,296.03c-1.62,5.98-3.75,11.8-6.06,17.55-15.22,36-58.94,88.51-95,90.89-36.06,2.38-39.13-24.5-81.99-25.47-42.86-.98-75.52-39.51-75.52-89.51s35.38-48.31,45.93-67.36c10.55-19.05,17.35-51.03,52.74-52.75,8.7.02,18.39,3.36,25.68,7.45h0c.47.29.93.56,1.41.81,1.62.89,3.31,1.62,5.12,2.05,7.48,1.8,15.05-1.84,22.28-4.48,12.23-4.46,25.73-6.22,38.34-3,12.61,3.21,24.16,11.85,29.09,23.88,3.23,7.89,3.58,16.8,7.36,24.44,5.78,11.67,18.45,18.34,25.85,29.07,9.12,13.22,8.97,30.93,4.76,46.43Z"/>
          </g>
          <g class="cls-14">
            <g>
              <path class="cls-27" d="M758.58,89.17c-10.2-10.97-26.24-14.06-41.2-14.97-15.43-.94-30.96-.19-46.34-1.77-15.38-1.58-30.98-5.71-43.17-15.22-9.02-7.04-15.67-16.61-23.7-24.77-12.86-13.08-29.1-22.36-45.89-29.74-11.13-4.89-22.82-9.06-34.96-9.7-21.52-1.13-43.47,10.01-54.56,28.49-11.09,18.48-10.39,43.6,2.38,60.96,11.28,15.34,29.93,23.59,42.53,37.86,19.34,21.92,22.17,55.28,42.92,75.87,11.48,11.39,27.89,17.63,44.03,16.73,8.98-.5,17.73-3.08,26.68-4.04,36.56-3.91,74.21,19.19,108.94,7.12,23-7.99,37.83-31.56,39.72-55.29,1.72-21.53-2.2-55.22-17.39-71.55Z"/>
              <path class="cls-27" d="M480.97,27.93c-9.99,17.61-8.31,41.09,3.31,57.61,9.89,14.05,26.58,21.57,37.73,34.56,17.11,19.95,19.79,49.82,38.1,68.83,5.33,5.54,11.92,9.96,19.18,12.68,7.27,2.72,15.1,3.78,22.81,3.22,8.22-.6,16.21-2.96,24.39-3.94,9.02-1.08,18.1-.41,27.2.96,24.62,3.71,49.33,12.55,72.62,4.66,21.18-7.16,35.15-28.34,37.47-49.85,2.12-19.6-.96-50.23-14.76-65.73-9.24-10.31-23.91-13.53-37.73-14.6-4.81-.37-9.64-.54-14.47-.65-9.51-.21-19.02-.18-28.49-1.06-5.84-.54-11.72-1.47-17.41-2.97-8.2-2.17-16.01-5.55-22.75-10.66-8.44-6.4-14.75-15.13-22.22-22.68-11.99-12.12-26.83-21.07-42.29-28.12-7.17-3.28-14.61-6.19-22.31-7.85-3.32-.72-6.69-1.19-10.09-1.36-20.01-1-40.44,9.6-50.29,26.96Z"/>
              <path class="cls-27" d="M493.18,34.36c-8.89,16.75-6.25,38.56,4.24,54.26,8.51,12.74,23.23,19.56,32.92,31.26,14.88,17.99,17.38,44.4,33.28,61.79,4.92,5.39,11.14,9.81,18.11,12.38,6.97,2.57,14.5,3.36,21.85,2.67,7.45-.69,14.7-2.84,22.1-3.84,8.16-1.1,16.39-.67,24.65.41,22.34,2.93,44.83,10.68,66.06,3.71,19.37-6.33,32.47-25.11,35.22-44.42,2.52-17.67.32-45.29-12.13-59.91-8.24-9.68-21.58-13-34.26-14.22-4.41-.42-8.86-.65-13.31-.78-8.76-.26-17.54-.17-26.26-.89-5.39-.44-10.81-1.22-16.07-2.53-7.58-1.9-14.81-4.92-21.08-9.51-7.86-5.75-13.83-13.65-20.74-20.59-11.11-11.16-24.57-19.78-38.7-26.51-6.56-3.14-13.39-5.91-20.52-7.47-3.07-.67-6.19-1.11-9.33-1.26-18.5-.86-37.41,9.2-46.02,25.43Z"/>
            </g>
          </g>
          <g class="cls-13">
            <polyline class="cls-23" points="441.48 328.33 441.48 294.22 441.48 260.1 441.48 225.99 441.48 193.95"/>
            <polyline class="cls-23" points="475.6 328.33 475.6 294.22 475.6 260.1 475.6 225.99 475.6 193.95"/>
            <polyline class="cls-23" points="407.37 225.99 441.48 225.99 475.6 225.99 509.71 225.99 541.75 225.99"/>
            <polyline class="cls-23" points="407.37 260.1 441.48 260.1 475.6 260.1 509.71 260.1 541.75 260.1"/>
            <polyline class="cls-23" points="407.37 294.22 441.48 294.22 475.6 294.22 509.71 294.22 541.75 294.22"/>
          </g>
        </g>
        <g>
          <g class="cls-13">
            <g>
              <path class="cls-1" d="M248.44,296.03c-1.62,5.98-3.75,11.8-6.06,17.55-15.22,36-58.94,88.51-95,90.89-36.06,2.38-39.13-24.5-81.99-25.47-42.86-.98-75.52-39.51-75.52-89.51s35.38-48.31,45.93-67.36c10.55-19.05,17.35-51.03,52.74-52.75,8.7.02,18.39,3.36,25.68,7.45h0c.47.29.93.56,1.41.81,1.62.89,3.31,1.62,5.12,2.05,7.48,1.8,15.05-1.84,22.28-4.48,12.23-4.46,25.73-6.22,38.34-3,12.61,3.21,24.16,11.85,29.09,23.88,3.23,7.89,3.58,16.8,7.36,24.44,5.78,11.67,18.45,18.34,25.85,29.07,9.12,13.22,8.97,30.93,4.76,46.43Z"/>
              <path class="cls-8" d="M116.4,185.31h0c.42.25.84.49,1.26.71,1.45.76,2.96,1.42,4.56,1.8,6.68,1.58,13.43-1.59,19.87-3.87,10.93-3.85,22.93-5.3,34.12-2.37,11.2,2.94,21.44,10.65,25.89,21.35,2.91,7.01,3.29,14.92,6.68,21.72,5.18,10.38,16.38,16.39,23,25.94,8.14,11.76,8.07,27.39,4.75,41.15-1.29,5.35-2.95,10.59-4.89,15.76-8.14,21.62-28.72,49.64-51.13,66.44-11.5,8.63-23.4,14.74-34.53,15.69-32.28,2.74-35.69-20.12-74.16-21.5-38.96-1.4-66.87-37-66.08-81.65.78-44.12,31.56-43.14,40.89-60.27,9.35-17.2,15.39-45.66,46.82-47.34,7.74-.03,16.37,2.87,22.94,6.44Z"/>
              <path class="cls-12" d="M118.58,193.8h0c.37.21.74.42,1.11.61,1.28.66,2.6,1.22,4.01,1.54,5.89,1.36,11.81-1.34,17.46-3.26,9.63-3.24,20.12-4.38,29.9-1.74,9.8,2.66,18.73,9.45,22.69,18.82,2.58,6.13,3,13.04,6,19,4.57,9.09,14.31,14.43,20.15,22.81,7.16,10.29,7.17,23.87,4.74,35.87-.95,4.71-2.19,9.37-3.73,13.97-6.45,19.45-25,44.67-45.38,59.28-10.36,7.42-20.96,13.01-30.93,14.1-28.5,3.09-32.26-15.75-66.33-17.54-35.07-1.84-58.23-34.48-56.64-73.78,1.54-38.22,27.73-37.97,35.86-53.19,8.15-15.34,13.42-40.28,40.89-41.93,6.78-.09,14.36,2.37,20.21,5.43Z"/>
              <path class="cls-9" d="M120.76,202.28h0c.32.18.64.35.96.51,1.1.55,2.24,1.01,3.46,1.29,5.09,1.14,10.19-1.1,15.05-2.66,8.32-2.66,17.32-3.46,25.67-1.1,8.39,2.38,16.01,8.25,19.49,16.29,2.26,5.25,2.71,11.16,5.31,16.28,3.96,7.79,12.25,12.48,17.3,19.68,6.18,8.82,6.28,20.36,4.73,30.59-.62,4.09-1.44,8.14-2.57,12.18-4.82,17.27-21.28,39.7-39.64,52.12-9.21,6.23-18.52,11.28-27.33,12.5-24.71,3.42-28.82-11.4-58.5-13.57-31.17-2.28-49.6-31.93-47.2-65.92,2.28-32.3,23.91-32.79,30.82-46.1,6.96-13.48,11.46-34.9,34.96-36.52,5.82-.14,12.34,1.87,17.47,4.42Z"/>
              <path class="cls-11" d="M122.94,210.77h0c.27.14.54.28.81.41.93.44,1.89.81,2.9,1.03,4.29.92,8.57-.85,12.64-2.05,7.02-2.06,14.52-2.54,21.45-.47,6.98,2.11,13.3,7.05,16.29,13.76,1.94,4.37,2.42,9.28,4.63,13.56,3.35,6.5,10.18,10.52,14.45,16.55,5.2,7.35,5.41,16.87,4.72,25.32-.28,3.47-.69,6.92-1.41,10.38-3.15,15.13-17.55,34.74-33.9,44.96-8.05,5.03-16.07,9.54-23.73,10.91-20.91,3.73-25.4-7.07-50.67-9.61-27.29-2.74-41-29.35-37.76-58.05,2.97-26.35,20.11-27.61,25.79-39.01,5.79-11.61,9.5-29.52,29.03-31.12,4.86-.19,10.32,1.37,14.74,3.41Z"/>
              <path class="cls-3" d="M125.12,219.26h0c.22.11.44.21.66.31.76.33,1.53.61,2.35.78,3.5.71,6.95-.6,10.23-1.44,5.72-1.46,11.72-1.63,17.23.17,5.57,1.82,10.58,5.85,13.09,11.23,1.61,3.49,2.13,7.4,3.95,10.84,2.75,5.21,8.11,8.56,11.6,13.43,4.22,5.88,4.56,13.41,4.71,20.04.06,2.87.08,5.71-.25,8.59-1.46,13.01-13.8,29.79-28.15,37.8-6.89,3.84-13.62,7.8-20.13,9.32-17.12,4.01-21.97-2.77-42.83-5.64-23.4-3.22-32.44-26.71-28.32-50.19,3.58-20.38,16.28-22.43,20.76-31.92,4.59-9.75,7.54-24.15,23.1-25.71,3.9-.25,8.31.87,12.01,2.4Z"/>
              <path class="cls-4" d="M127.3,227.74h0c.17.07.34.14.51.2.58.22,1.18.41,1.8.53,2.7.49,5.33-.35,7.83-.83,4.43-.85,8.92-.71,13.01.8,4.17,1.54,7.87,4.65,9.88,8.7,1.29,2.61,1.84,5.52,3.27,8.12,2.14,3.91,6.04,6.61,8.75,10.3,3.24,4.41,3.8,9.98,4.69,14.76.43,2.29.86,4.5.92,6.8.29,10.93-10.03,24.86-22.41,30.63-5.72,2.67-11.18,6.03-16.53,7.73-13.32,4.23-18.55,1.49-35-1.67-19.52-3.75-24-24-18.88-42.32,4.02-14.38,12.46-17.26,15.72-24.84,3.4-7.89,5.58-18.77,17.17-20.3,2.94-.3,6.29.37,9.27,1.39Z"/>
              <path class="cls-7" d="M129.48,236.23h0c.12.04.24.07.36.1.41.11.82.21,1.25.27,1.9.27,3.72-.1,5.42-.23,3.14-.24,6.12.21,8.78,1.43,2.76,1.27,5.16,3.45,6.68,6.17.97,1.73,1.55,3.64,2.59,5.4,1.53,2.62,3.97,4.65,5.91,7.17,2.25,2.94,3.21,6.56,4.68,9.48.87,1.71,1.66,3.3,2.08,5.01,2.16,8.85-6.24,19.99-16.67,23.47-4.53,1.51-8.74,4.23-12.93,6.14-9.55,4.36-15.11,5.67-27.17,2.29-15.62-4.37-15.9-21.27-9.44-34.45,4.12-8.4,8.63-12.09,10.69-17.75,2.2-6.04,3.62-13.39,11.24-14.89,1.98-.35,4.27-.13,6.54.38Z"/>
              <path class="cls-5" d="M131.66,244.72c-12.07,0-5.83,13.71-14.77,20.77-8.93,7.06-11.63,21.4,0,26.59s18.69-9.56,28.67-10.8,17.45-12.88,7.69-19.53-8.9-17.03-21.59-17.03Z"/>
            </g>
          </g>
          <g class="cls-13">
            <g>
              <path class="cls-1" d="M532.32,200.68c-5.28,3.25-10.81,6.03-16.43,8.65-35.74,15.83-103.55,24.18-131.47,1.23-27.92-22.95-11.76-44.64-42.34-74.69-30.58-30.05-28.01-80.5,6.21-116.95,34.23-36.46,58.87-11,79.59-17.67,20.73-6.67,47.58-25.33,74.56-2.35,6.33,5.97,11.1,15.04,13.62,23.01h0c.14.53.3,1.05.47,1.56.57,1.75,1.31,3.45,2.33,5,4.22,6.43,12.23,8.96,19.31,11.99,11.97,5.11,23.01,13.08,30.01,24.05,7,10.97,9.5,25.17,4.86,37.33-3.04,7.96-8.89,14.7-11.36,22.86-3.77,12.47.9,26-1.05,38.88-2.4,15.88-14.63,28.69-28.31,37.11Z"/>
              <path class="cls-8" d="M431.57,12.13c18.9-5.84,42.94-22.6,67.06-2.8,5.75,5.1,10.13,12.94,12.55,19.92,0,0,0,0,0,0,.14.46.29.92.45,1.37.56,1.53,1.23,3.03,2.17,4.4,3.85,5.67,11.02,7.97,17.39,10.79,10.68,4.67,20.49,11.84,26.7,21.63,6.23,9.84,8.46,22.5,4.4,33.37-2.67,7.12-7.8,13.18-9.99,20.48-3.33,11.14.71,23.22-1.01,34.75-2.12,14.18-12.97,25.44-24.71,33.37-4.6,3.11-9.41,5.96-14.46,8.45-12.37,6.1-29.73,10.43-47.24,12.13-27.82,2.7-57.77,1.31-73.62-12.29-24.3-20.85-10.53-39.8-37.12-66.49-26.65-26.76-23.87-71.36,6.66-103.47,30.31-32.03,52.23-9.88,70.77-15.61Z"/>
              <path class="cls-12" d="M435.25,23.02c17.06-5.01,38.31-19.88,59.55-3.25,5.17,4.23,9.16,10.85,11.48,16.83,0,0,0,0,0,0,.13.4.28.79.43,1.17.53,1.32,1.16,2.6,2.01,3.79,3.5,4.89,9.81,7.01,15.48,9.59,9.38,4.27,17.96,10.59,23.39,19.2,5.47,8.7,7.42,19.82,3.93,29.42-2.29,6.28-6.71,11.66-8.61,18.1-2.89,9.81.53,20.44-.97,30.61-1.84,12.47-11.32,22.22-21.11,29.64-3.93,2.98-8.03,5.82-12.5,8.25-11.07,5.96-27.22,9.8-43.1,10.68-25.01,1.38-52.62.88-67.14-12.21-20.73-18.68-9.31-34.95-31.89-58.29-22.71-23.47-19.65-62.16,7.1-89.99,26.45-27.53,45.59-8.75,61.95-13.55Z"/>
              <path class="cls-9" d="M438.93,33.91c15.24-4.17,33.67-17.15,52.05-3.69,4.59,3.35,8.19,8.75,10.42,13.74,0,0,0,0,0,0,.13.33.27.66.42.98.5,1.1,1.09,2.18,1.85,3.19,3.13,4.12,8.59,6.03,13.56,8.39,8.09,3.84,15.44,9.35,20.08,16.78,4.71,7.57,6.38,17.15,3.47,25.46-1.91,5.44-5.62,10.13-7.23,15.72-2.46,8.48.34,17.66-.93,26.48-1.56,10.76-9.67,19.06-17.52,25.91-3.28,2.86-6.65,5.71-10.53,8.04-9.75,5.87-24.7,9.17-38.96,9.22-22.19.08-47.46.48-60.67-12.13-17.21-16.43-8.09-30.12-26.67-50.09-18.78-20.18-15.46-52.99,7.54-76.51,22.56-23.06,38.96-7.61,53.12-11.49Z"/>
              <path class="cls-11" d="M442.61,44.8c13.42-3.33,29.04-14.43,44.54-4.14,4.01,2.48,7.22,6.66,9.35,10.66,0,0,0,0,0,0,.12.26.26.53.4.79.47.89,1.01,1.76,1.7,2.59,2.77,3.35,7.38,5.05,11.65,7.19,6.8,3.41,12.92,8.11,16.78,14.35,3.95,6.44,5.34,14.47,3,21.51-1.53,4.61-4.53,8.61-5.86,13.34-2.02,7.15.16,14.87-.89,22.34-1.28,9.05-8.01,15.97-13.92,22.17-2.64,2.78-5.28,5.59-8.57,7.84-8.43,5.77-22.18,8.56-34.82,7.77-19.36-1.21-42.3.12-54.19-12.05-13.75-14.08-6.86-25.29-21.45-41.88-14.85-16.9-11.28-43.82,7.98-63.03,18.66-18.6,32.33-6.47,44.3-9.44Z"/>
              <path class="cls-3" d="M446.29,55.69c11.6-2.48,24.4-11.7,37.04-4.59,3.43,1.61,6.25,4.56,8.28,7.57,0,0,0,0,0,0,.12.2.25.4.38.59.44.67.94,1.34,1.54,1.98,2.4,2.58,6.17,4.07,9.73,5.99,5.52,2.98,10.41,6.86,13.47,11.93,3.2,5.3,4.3,11.79,2.54,17.55-1.15,3.77-3.44,7.09-4.48,10.96-1.58,5.82-.03,12.09-.85,18.2-1,7.35-6.32,12.99-10.32,18.44-2.01,2.73-3.9,5.48-6.6,7.64-7.12,5.69-19.65,7.96-30.68,6.31-16.52-2.47-37.16-.19-47.72-11.98-10.4-11.61-5.64-20.48-16.22-33.68-10.93-13.63-7.11-34.65,8.42-49.55,14.75-14.14,25.72-5.3,35.48-7.38Z"/>
              <path class="cls-4" d="M449.97,66.58c9.8-1.59,19.76-8.98,29.54-5.03,2.85.74,5.28,2.47,7.21,4.48,0,0,0,0,0,0,.12.13.23.27.36.4.41.45.87.91,1.38,1.38,2.03,1.82,4.96,3.08,7.82,4.79,4.23,2.54,7.88,5.61,10.16,9.5,2.44,4.16,3.26,9.12,2.07,13.6-.78,2.93-2.35,5.56-3.1,8.58-1.14,4.49-.21,9.31-.81,14.07-.72,5.64-3.74,10.63-6.72,14.7-.84,2.95-2.51,5.37-4.63,7.44-5.79,5.63-17.12,7.39-26.54,4.86-13.68-3.68-32.07-.41-41.24-11.9-7.17-8.99-4.41-15.69-11-25.48-7.01-10.4-2.95-25.49,8.86-36.06,10.83-9.7,19.11-4.1,26.65-5.32Z"/>
              <path class="cls-7" d="M453.65,77.47c8.02-.64,15.13-6.25,22.03-5.48,2.27-.13,4.31.37,6.15,1.39,0,0,0,0,0,0,.11.07.22.14.34.21.38.24.79.49,1.23.78,1.64,1.06,3.75,2.08,5.9,3.59,2.95,2.08,5.36,4.37,6.85,7.08,1.67,3.03,2.21,6.44,1.61,9.64-.4,2.09-1.26,4.04-1.73,6.2-.7,3.16-.4,6.53-.77,9.93-.44,3.93-2.45,7.48-3.12,10.97-.55,2.85-1.12,5.28-2.67,7.23-4.44,5.6-14.61,6.87-22.41,3.4-10.86-4.83-27.19-.45-34.77-11.82-4.14-6.2-3.13-11-5.78-17.28-3.06-7.26,1.17-16.34,9.31-22.58,6.87-5.27,12.52-2.84,17.83-3.26Z"/>
              <path class="cls-5" d="M482.31,83.33c-8.8-8.26-13.64,6-24.98,5.04-11.35-.97-23.13,7.63-18.2,19.38,4.93,11.75,20.17,5.83,28.29,11.75,8.12,5.92,21.54,2.55,18.97-8.97-2.57-11.53,5.17-18.51-4.08-27.19Z"/>
            </g>
          </g>
          <g class="cls-14">
            <g>
              <path class="cls-22" d="M402.73,496.76c6.89-7.61,11.73-17.68,10.82-27.91-1.46-16.39-16.86-29.2-17.58-45.64-.27-6.25,1.66-12.38,3.97-18.19,10.51-26.36,29.91-52.75,22.69-80.2-3.13-11.9-11.08-22-20.11-30.36-9.19-8.51-19.87-15.66-31.82-19.42-35.24-11.07-75.38,11.63-90.75,45.22-7.07,15.46-9.88,32.81-18.64,47.39-11.05,18.4-30.11,30.15-46.76,43.69-5.19,4.22-10.32,8.84-13.21,14.87-2.94,6.13-3.29,13.15-3.24,19.94.09,13.28,1.74,27.27,9.56,38,10.34,14.19,28.77,19.39,45.8,23.67,28.14,7.08,62.07,21.88,91.12,22.05,19.77.11,45.55-19.58,58.14-33.12Z"/>
              <path class="cls-21" d="M284.06,329.66c-3.12,6.52-5.54,13.35-7.93,20.23-2.79,8.02-5.58,16.03-9.89,23.35-4.14,7.02-9.45,13.07-15.38,18.6-8.54,7.98-18.36,14.91-27.51,22.29-4.85,3.91-9.69,8.14-12.5,13.65-2.87,5.6-3.42,12.02-3.52,18.33,0,.36,0,.73-.01,1.1-.08,12,1.79,24.6,8.96,34.22,9.55,12.83,26.29,17.6,41.83,21.47,5.85,1.45,11.98,3.25,18.25,5.17,21.31,6.49,44.41,14.3,64.91,14.47,18.77.22,42.82-16.67,54.97-29.61,6.08-6.47,10.36-15.08,10.23-23.9,0-.6-.04-1.19-.09-1.79-1.28-15.13-15.45-26.95-16.42-42.04-.37-5.74,1.22-11.38,3.24-16.75,8.73-23.19,25.45-46.38,20.93-70.41-.19-1-.41-2.01-.68-3.01-2.86-10.88-10.1-20.13-18.32-27.81-8.3-7.72-17.93-14.24-28.72-17.7-18.15-5.84-37.76-1.83-53.91,8.35-12.17,7.67-22.25,18.89-28.44,31.8Z"/>
              <path class="cls-20" d="M288.16,339.06c-2.99,5.9-5.45,12.03-7.78,18.29-2.72,7.31-5.32,14.69-9.22,21.47-3.74,6.51-8.5,12.17-13.85,17.35-7.72,7.48-16.69,13.98-25.17,20.74-4.51,3.59-9.05,7.44-11.8,12.42-2.81,5.08-3.55,10.9-3.79,16.72-.01.34-.03.67-.04,1.01-.33,11.08,1.63,22.79,8.37,31.63,8.76,11.47,23.81,15.82,37.86,19.26,5.3,1.3,10.84,2.88,16.51,4.56,19.28,5.69,40.13,12.39,58.7,12.66,17.77.26,39.99-13.85,51.79-26.1,5.64-5.85,9.61-13.74,9.53-21.83,0-.55-.03-1.09-.07-1.64-1.11-13.86-14.04-24.69-15.27-38.44-.46-5.22.79-10.38,2.51-15.3,7.37-21.07,22.53-42.13,18.43-63.92-.17-.91-.37-1.82-.61-2.73-2.59-9.86-9.12-18.26-16.53-25.25-7.41-6.94-16-12.81-25.62-15.99-16.19-5.36-33.72-2.01-48.24,6.94-10.94,6.74-19.94,16.75-25.71,28.15Z"/>
              <path class="cls-24" d="M292.27,348.46c-2.85,5.28-5.36,10.7-7.63,16.36-2.64,6.6-5.05,13.35-8.55,19.6-3.35,5.99-7.55,11.27-12.32,16.1-6.89,6.99-15.03,13.05-22.82,19.19-4.18,3.28-8.42,6.73-11.09,11.2-2.75,4.55-3.68,9.78-4.06,15.1-.02.31-.04.62-.06.93-.58,10.16,1.46,20.99,7.78,29.03,7.96,10.12,21.33,14.03,33.89,17.05,4.75,1.14,9.7,2.51,14.77,3.95,17.25,4.9,35.85,10.52,52.49,10.85,16.77.34,37.16-11.04,48.61-22.58,5.2-5.24,8.86-12.4,8.83-19.76,0-.5-.02-.99-.06-1.49-.93-12.6-12.63-22.43-14.11-34.84-.56-4.71.36-9.38,1.78-13.86,6.01-18.94,19.6-37.88,15.92-57.43-.15-.81-.34-1.63-.55-2.45-2.32-8.84-8.12-16.4-14.74-22.69-6.49-6.17-14.07-11.38-22.52-14.28-14.24-4.88-29.68-2.2-42.58,5.52-9.72,5.82-17.64,14.62-22.98,24.5Z"/>
              <path class="cls-25" d="M296.37,357.86c-2.72,4.66-5.28,9.37-7.48,14.42-2.57,5.89-4.79,12-7.88,17.73-2.96,5.47-6.6,10.37-10.8,14.85-6.07,6.49-13.36,12.12-20.48,17.63-3.84,2.96-7.78,6.04-10.38,9.97-2.67,4.04-3.82,8.66-4.34,13.49-.03.28-.06.56-.08.84-.83,9.24,1.29,19.19,7.2,26.43,7.15,8.77,18.84,12.25,29.93,14.84,4.2.98,8.57,2.14,13.03,3.35,15.22,4.1,31.57,8.65,46.28,9.04,15.77.42,34.31-8.23,45.44-19.07,4.76-4.64,8.12-11.06,8.14-17.69,0-.45-.01-.9-.04-1.34-.75-11.34-11.21-20.17-12.96-31.24-.66-4.2-.07-8.38,1.05-12.42,4.67-16.8,16.68-33.63,13.42-50.95-.14-.72-.3-1.44-.49-2.16-2.05-7.82-7.14-14.54-12.95-20.14-5.6-5.39-12.13-9.96-19.42-12.56-12.28-4.4-25.64-2.38-36.91,4.11-8.49,4.89-15.36,12.49-20.25,20.86Z"/>
              <path class="cls-17" d="M300.47,367.26c-2.6,4.05-5.19,8.04-7.33,12.48-2.5,5.18-4.53,10.66-7.21,15.86-2.57,4.95-5.65,9.47-9.27,13.59-5.24,6-11.69,11.19-18.14,16.08-3.5,2.65-7.14,5.34-9.68,8.75-2.61,3.51-3.95,7.53-4.61,11.88-.04.25-.07.5-.11.76-1.08,8.31,1.11,17.39,6.61,23.84,6.34,7.43,16.36,10.46,25.96,12.63,3.64.82,7.43,1.77,11.28,2.74,13.19,3.3,27.29,6.8,40.07,7.23,14.77.5,31.46-5.44,42.26-15.56,4.31-4.04,7.37-9.73,7.44-15.63,0-.4,0-.8-.03-1.19-.58-10.08-9.8-17.91-11.8-27.63-.75-3.68-.5-7.37.32-10.97,3.34-14.65,13.75-29.38,10.92-44.46-.12-.63-.26-1.25-.42-1.88-1.77-6.8-6.15-12.67-11.17-17.58-4.7-4.6-10.2-8.53-16.33-10.85-10.33-3.92-21.6-2.57-31.24,2.69-7.27,3.97-13.11,10.34-17.52,17.21Z"/>
              <path class="cls-26" d="M304.58,376.66c-2.5,3.43-5.11,6.71-7.18,10.54-2.43,4.47-4.26,9.32-6.54,13.98-2.18,4.43-4.69,8.57-7.74,12.34-4.42,5.5-10.02,10.26-15.8,14.53-3.17,2.33-6.51,4.64-8.97,7.53-2.55,2.99-4.08,6.41-4.88,10.27-.05.22-.09.45-.13.67-1.34,7.39.92,15.6,6.02,21.24,5.51,6.09,13.88,8.67,21.99,10.43,3.09.66,6.29,1.4,9.54,2.14,11.17,2.5,23.01,4.95,33.86,5.43,13.77.6,28.59-2.65,39.09-12.05,3.85-3.45,6.62-8.39,6.74-13.56,0-.35,0-.7-.01-1.04-.4-8.81-8.39-15.65-10.65-24.03-.85-3.17-.92-6.36-.41-9.53,2.03-12.49,10.83-25.13,8.41-37.97-.1-.53-.22-1.07-.36-1.6-1.5-5.78-5.17-10.8-9.38-15.02-3.8-3.82-8.27-7.11-13.23-9.13-8.38-3.44-17.56-2.75-25.58,1.28-6.04,3.04-10.88,8.19-14.79,13.56Z"/>
              <path class="cls-16" d="M308.68,386.05c-2.41,2.8-5.02,5.38-7.04,8.6-2.36,3.76-4,7.98-5.87,12.11-1.78,3.91-3.74,7.67-6.22,11.09-3.6,5-8.36,9.33-13.46,12.98-2.83,2.02-5.88,3.93-8.27,6.3-2.49,2.47-4.21,5.29-5.16,8.66-.05.19-.1.39-.15.59-1.59,6.47.72,13.82,5.43,18.65,4.66,4.77,11.4,6.89,18.02,8.22,2.54.51,5.16,1.03,7.8,1.53,9.14,1.7,18.73,3.12,27.65,3.62,12.78.71,25.7.1,35.91-8.54,3.39-2.87,5.87-7.05,6.05-11.49.01-.3.01-.6,0-.9-.23-7.55-6.97-13.39-9.5-20.43-.95-2.66-1.33-5.35-1.14-8.09.75-10.32,7.9-20.88,5.91-31.48-.08-.44-.18-.88-.29-1.32-1.23-4.76-4.19-8.93-7.59-12.47-2.91-3.03-6.33-5.68-10.13-7.42-6.42-2.96-13.52-2.94-19.91-.14-4.82,2.11-8.7,6.01-12.06,9.91Z"/>
              <path class="cls-18" d="M312.78,395.45c-2.37,2.14-4.93,4.05-6.89,6.67-2.29,3.06-3.73,6.63-5.2,10.24-1.39,3.4-2.79,6.77-4.69,9.84-2.77,4.51-6.69,8.4-11.12,11.43-2.49,1.7-5.25,3.23-7.56,5.08-2.43,1.94-4.35,4.17-5.43,7.05-.06.16-.12.33-.18.5-1.84,5.55.5,12.06,4.84,16.05,3.79,3.48,8.92,5.1,14.05,6.01,1.99.35,4.02.66,6.06.92,7.11.91,14.45,1.31,21.43,1.81,11.77.85,22.77,2.81,32.73-5.03,2.92-2.29,5.12-5.71,5.35-9.42.02-.25.02-.5.02-.75-.05-6.29-5.56-11.13-8.34-16.83-1.04-2.15-1.73-4.34-1.87-6.64-.47-8.15,4.98-16.63,3.41-24.99-.07-.35-.14-.69-.23-1.03-.96-3.73-3.22-7.05-5.8-9.91-2.02-2.24-4.4-4.25-7.03-5.71-4.47-2.48-9.48-3.13-14.24-1.55-3.59,1.19-6.59,3.79-9.33,6.26Z"/>
              <path class="cls-19" d="M344.36,462.17c2.44-1.74,4.37-4.37,4.65-7.35.68-7.24-7.89-11.99-9.75-19.02-1.59-6.01,2.05-12.39.9-18.5-.57-3.02-2.26-5.7-4.18-8.1-3.11-3.9-7.55-7.5-12.51-6.96-2.37.26-4.52,1.45-6.6,2.61-2.4,1.35-4.85,2.72-6.74,4.73-4.29,4.54-4.96,11.33-7.7,16.95-1.95,4.01-5.02,7.47-8.77,9.88-4.58,2.94-10.52,4.75-12.76,9.7-2.09,4.63.23,10.36,4.26,13.45s9.32,4.01,14.4,4.12c5.08.11,10.17-.49,15.22,0,10.77,1.04,19.8,5.45,29.56-1.51Z"/>
            </g>
          </g>
          <g class="cls-14">
            <g>
              <path class="cls-27" d="M267.58,89.17c-10.2-10.97-26.24-14.06-41.2-14.97-15.43-.94-30.96-.19-46.34-1.77-15.38-1.58-30.98-5.71-43.17-15.22-9.02-7.04-15.67-16.61-23.7-24.77-12.86-13.08-29.1-22.36-45.89-29.74-11.13-4.89-22.82-9.06-34.96-9.7C10.8-8.12-11.15,3.01-22.23,21.5c-11.09,18.48-10.39,43.6,2.38,60.96,11.28,15.34,29.93,23.59,42.53,37.86,19.34,21.92,22.17,55.28,42.92,75.87,11.48,11.39,27.89,17.63,44.03,16.73,8.98-.5,17.73-3.08,26.68-4.04,36.56-3.91,74.21,19.19,108.94,7.12,23-7.99,37.83-31.56,39.72-55.29,1.72-21.53-2.2-55.22-17.39-71.55Z"/>
              <path class="cls-27" d="M-10.03,27.93c-9.99,17.61-8.31,41.09,3.31,57.61,9.89,14.05,26.58,21.57,37.73,34.56,17.11,19.95,19.79,49.82,38.1,68.83,5.33,5.54,11.92,9.96,19.18,12.68,7.27,2.72,15.1,3.78,22.81,3.22,8.22-.6,16.21-2.96,24.39-3.94,9.02-1.08,18.1-.41,27.2.96,24.62,3.71,49.33,12.55,72.62,4.66,21.18-7.16,35.15-28.34,37.47-49.85,2.12-19.6-.96-50.23-14.76-65.73-9.24-10.31-23.91-13.53-37.73-14.6-4.81-.37-9.64-.54-14.47-.65-9.51-.21-19.02-.18-28.49-1.06-5.84-.54-11.72-1.47-17.41-2.97-8.2-2.17-16.01-5.55-22.75-10.66-8.44-6.4-14.75-15.13-22.22-22.68-11.99-12.12-26.83-21.07-42.29-28.12-7.17-3.28-14.61-6.19-22.31-7.85-3.32-.72-6.69-1.19-10.09-1.36C20.25-.03-.18,10.57-10.03,27.93Z"/>
              <path class="cls-27" d="M2.18,34.36c-8.89,16.75-6.25,38.56,4.24,54.26,8.51,12.74,23.23,19.56,32.92,31.26,14.88,17.99,17.38,44.4,33.28,61.79,4.92,5.39,11.14,9.81,18.11,12.38,6.97,2.57,14.5,3.36,21.85,2.67,7.45-.69,14.7-2.84,22.1-3.84,8.16-1.1,16.39-.67,24.65.41,22.34,2.93,44.83,10.68,66.06,3.71,19.37-6.33,32.47-25.11,35.22-44.42,2.52-17.67.32-45.29-12.13-59.91-8.24-9.68-21.58-13-34.26-14.22-4.41-.42-8.86-.65-13.31-.78-8.76-.26-17.54-.17-26.26-.89-5.39-.44-10.81-1.22-16.07-2.53-7.58-1.9-14.81-4.92-21.08-9.51-7.86-5.75-13.83-13.65-20.74-20.59-11.11-11.16-24.57-19.78-38.7-26.51-6.56-3.14-13.39-5.91-20.52-7.47-3.07-.67-6.19-1.11-9.33-1.26-18.5-.86-37.41,9.2-46.02,25.43Z"/>
              <path class="cls-27" d="M14.39,40.79c-7.78,15.9-4.17,36.01,5.17,50.9,7.16,11.41,19.88,17.54,28.12,27.96,12.65,16.02,14.93,39.05,28.45,54.75,4.52,5.25,10.36,9.67,17.03,12.09,6.68,2.42,13.89,2.94,20.88,2.13,6.68-.77,13.19-2.73,19.82-3.74,7.31-1.12,14.68-.94,22.1-.14,20.05,2.16,40.33,8.81,59.5,2.77,17.56-5.5,29.8-21.9,32.97-38.98,2.92-15.75,1.58-40.32-9.49-54.09-7.26-9.03-19.26-12.47-30.79-13.85-4.02-.48-8.08-.75-12.16-.91-8.02-.3-16.05-.16-24.04-.71-4.94-.34-9.9-.96-14.72-2.09-6.95-1.62-13.61-4.29-19.42-8.37-7.28-5.11-12.91-12.17-19.26-18.5-10.24-10.2-22.3-18.48-35.1-24.89-5.96-3-12.18-5.62-18.73-7.09-2.82-.63-5.68-1.03-8.57-1.16-16.98-.73-34.37,8.82-41.75,23.9Z"/>
              <path class="cls-27" d="M26.59,47.23c-6.66,15.05-2.1,33.44,6.1,47.55,5.83,10.05,16.53,15.53,23.31,24.67,10.42,14.06,12.43,33.76,23.63,47.71,4.11,5.13,9.58,9.53,15.96,11.8,6.38,2.27,13.29,2.53,19.91,1.58,5.91-.84,11.67-2.61,17.53-3.65,6.46-1.15,12.97-1.2,19.54-.69,17.77,1.38,35.84,6.95,52.94,1.82,15.74-4.66,27.14-18.68,30.72-33.54,3.33-13.83,2.84-35.34-6.86-48.27-6.28-8.38-16.93-11.95-27.33-13.48-3.62-.53-7.29-.86-11-1.03-7.27-.34-14.56-.15-21.82-.53-4.48-.24-8.99-.71-13.38-1.65-6.32-1.35-12.4-3.65-17.75-7.22-6.71-4.47-11.99-10.69-17.78-16.4-9.37-9.24-20.03-17.19-31.5-23.27-5.35-2.86-10.96-5.33-16.94-6.71-2.57-.59-5.18-.95-7.81-1.05-15.47-.59-31.31,8.44-37.48,22.37Z"/>
              <path class="cls-27" d="M38.8,53.66c-5.52,14.22,0,30.83,7.02,44.2,4.55,8.65,13.18,13.51,18.51,21.37,8.19,12.09,9.86,28.54,18.81,40.67,3.7,5.02,8.79,9.39,14.88,11.5,6.09,2.12,12.68,2.13,18.95,1.04,5.14-.89,10.16-2.49,15.24-3.55,5.61-1.17,11.25-1.46,16.99-1.24,15.48.61,31.34,5.08,46.38.88,13.93-3.83,24.49-15.47,28.46-28.11,3.75-11.91,4.09-30.36-4.23-42.44-5.31-7.72-14.6-11.42-23.86-13.11-3.22-.59-6.51-.96-9.84-1.16-6.53-.39-13.07-.14-19.6-.36-4.03-.13-8.08-.46-12.04-1.2-5.7-1.07-11.2-3.02-16.08-6.07-6.13-3.83-11.06-9.2-16.3-14.31-8.49-8.28-17.77-15.89-27.9-21.66-4.74-2.72-9.75-5.05-15.15-6.33-2.32-.55-4.67-.88-7.05-.95-13.95-.46-28.24,8.07-33.21,20.84Z"/>
              <path class="cls-27" d="M51.01,60.09c-4.37,13.4,2.13,28.17,7.95,40.84,3.31,7.22,9.82,11.5,13.71,18.07,5.95,10.12,7.2,23.41,13.99,33.63,3.28,4.93,8.01,9.25,13.81,11.21,5.8,1.96,12.07,1.74,17.98.49,4.37-.93,8.64-2.37,12.95-3.45,4.76-1.19,9.54-1.73,14.43-1.79,13.2-.17,26.83,3.18,39.83-.07,12.11-3.03,21.85-12.26,26.21-22.67,4.18-9.99,5.33-25.37-1.6-36.62-4.34-7.06-12.27-10.89-20.39-12.73-2.83-.64-5.73-1.06-8.68-1.28-5.78-.43-11.59-.13-17.38-.18-3.58-.03-7.17-.21-10.69-.76-5.07-.8-10-2.39-14.42-4.93-5.55-3.18-10.14-7.72-14.82-12.22-7.62-7.32-15.5-14.6-24.3-20.04-4.14-2.58-8.54-4.76-13.36-5.95-2.07-.51-4.17-.8-6.29-.85-12.44-.32-25.15,7.72-28.94,19.32Z"/>
              <path class="cls-27" d="M63.21,66.52c-3.18,12.59,4.35,25.45,8.88,37.49,2.16,5.74,6.47,9.48,8.9,14.77,3.72,8.16,4.43,18.36,9.17,26.59,2.81,4.88,7.23,9.11,12.73,10.92,5.5,1.81,11.47,1.39,17.01-.05,3.6-.94,7.13-2.26,10.67-3.35,3.91-1.21,7.83-1.99,11.88-2.34,10.91-.94,22.34,1.31,33.27-1.01,10.29-2.19,19.24-9.04,23.96-17.24,4.64-8.07,6.56-20.37,1.03-30.8-3.38-6.39-9.94-10.36-16.92-12.36-2.43-.7-4.95-1.17-7.52-1.41-5.04-.47-10.1-.12-15.15,0-3.13.07-6.26.04-9.35-.32-4.45-.52-8.79-1.76-12.75-3.78-4.97-2.54-9.22-6.24-13.34-10.13-6.75-6.36-13.23-13.31-20.7-18.42-3.53-2.44-7.32-4.47-11.57-5.57-1.82-.47-3.67-.72-5.52-.75-10.92-.18-22.03,7.37-24.67,17.79Z"/>
              <path class="cls-27" d="M75.42,72.96c-1.94,11.78,6.8,22.66,9.81,34.13,1.1,4.22,3.12,7.47,4.1,11.47,1.49,6.19,1.51,13.4,4.34,19.55,2.25,4.88,6.45,8.96,11.66,10.62,5.21,1.66,10.88,1.08,16.04-.6,2.85-.92,5.62-2.14,8.38-3.26,3.06-1.24,6.12-2.26,9.32-2.89,8.63-1.71,17.84-.55,26.71-1.96,8.48-1.35,16.67-5.8,21.71-11.8,5.14-6.13,7.76-15.36,3.67-24.98-2.43-5.72-7.61-9.83-13.46-11.99-2.04-.75-4.17-1.27-6.36-1.54-4.29-.52-8.61-.11-12.93.17-2.67.17-5.35.29-8.01.12-3.82-.25-7.59-1.12-11.08-2.63-4.39-1.9-8.3-4.76-11.86-8.04-5.87-5.41-10.97-12.01-17.1-16.81-2.92-2.3-6.11-4.19-9.78-5.19-1.56-.43-3.16-.64-4.76-.65-9.41-.05-18.87,7.03-20.4,16.26Z"/>
              <path class="cls-27" d="M181.6,105.01c-2.03-6.79-8.18-12.17-15.19-13.27-5.74-.9-11.56.86-17.38.91-7.21.06-14.41-2.64-19.79-7.43-7.42-6.6-11.97-17.2-21.49-20-9.05-2.66-19.59,4.77-20.13,14.18-.63,10.97,9.96,19.82,10.73,30.78.49,6.94-3.04,13.98-1.19,20.69,1.37,4.96,5.67,8.82,10.59,10.33,4.92,1.51,10.34.85,15.08-1.14,4.45-1.87,8.37-4.84,12.86-6.6,6.34-2.49,13.35-2.4,20.15-2.91,13.76-1.03,30.87-8.42,25.76-25.53Z"/>
            </g>
          </g>
          <g>
            <circle class="cls-15" cx="24.6" cy="372.93" r="11.95"/>
            <circle class="cls-15" cx="317.29" cy="232.77" r="11.95"/>
            <path class="cls-10" d="M147.09,347.44c0,2.31-1.87,4.19-4.19,4.19s-4.19-1.87-4.19-4.19,1.87-4.19,4.19-4.19,4.19,1.87,4.19,4.19Z"/>
            <path class="cls-10" d="M198.1,87.62c0,2.31-1.87,4.19-4.19,4.19s-4.19-1.87-4.19-4.19,1.87-4.19,4.19-4.19,4.19,1.87,4.19,4.19Z"/>
            <path class="cls-10" d="M382.45,201.05c0,1.16-.94,2.09-2.09,2.09s-2.09-.94-2.09-2.09.94-2.09,2.09-2.09,2.09.94,2.09,2.09Z"/>
            <path class="cls-10" d="M182.53,16.25c0,1.16-.94,2.09-2.09,2.09s-2.09-.94-2.09-2.09.94-2.09,2.09-2.09,2.09.94,2.09,2.09Z"/>
            <path class="cls-10" d="M75.75,296.48c0,1.16-.94,2.09-2.09,2.09s-2.09-.94-2.09-2.09.94-2.09,2.09-2.09,2.09.94,2.09,2.09Z"/>
          </g>
          <g class="cls-13">
            <polyline class="cls-23" points="307.07 150.62 307.07 116.51 307.07 82.4 307.07 48.29 307.07 16.25"/>
            <polyline class="cls-23" points="341.18 150.62 341.18 116.51 341.18 82.4 341.18 48.29 341.18 16.25"/>
            <polyline class="cls-23" points="375.29 150.62 375.29 116.51 375.29 82.4 375.29 48.29 375.29 16.25"/>
            <polyline class="cls-23" points="272.95 48.29 307.07 48.29 341.18 48.29 375.29 48.29 407.33 48.29"/>
            <polyline class="cls-23" points="272.95 82.4 307.07 82.4 341.18 82.4 375.29 82.4 407.33 82.4"/>
            <polyline class="cls-23" points="272.95 116.51 307.07 116.51 341.18 116.51 375.29 116.51 407.33 116.51"/>
          </g>
          <g class="cls-13">
            <polyline class="cls-23" points="-49.52 328.33 -49.52 294.22 -49.52 260.1 -49.52 225.99 -49.52 193.95"/>
            <polyline class="cls-23" points="-15.4 328.33 -15.4 294.22 -15.4 260.1 -15.4 225.99 -15.4 193.95"/>
            <polyline class="cls-23" points="18.71 328.33 18.71 294.22 18.71 260.1 18.71 225.99 18.71 193.95"/>
            <polyline class="cls-23" points="-83.63 225.99 -49.52 225.99 -15.4 225.99 18.71 225.99 50.75 225.99"/>
            <polyline class="cls-23" points="-83.63 260.1 -49.52 260.1 -15.4 260.1 18.71 260.1 50.75 260.1"/>
            <polyline class="cls-23" points="-83.63 294.22 -49.52 294.22 -15.4 294.22 18.71 294.22 50.75 294.22"/>
          </g>
        </g>
        <g class="cls-13">
          <g>
            <path class="cls-1" d="M41.32,200.68c-5.28,3.25-10.81,6.03-16.43,8.65-35.74,15.83-103.55,24.18-131.47,1.23-27.92-22.95-11.76-44.64-42.34-74.69-30.58-30.05-28.01-80.5,6.21-116.95C-108.47-17.55-83.83,7.91-63.11,1.24-42.38-5.43-15.53-24.08,11.45-1.11c6.33,5.97,11.1,15.04,13.62,23.01h0c.14.53.3,1.05.47,1.56.57,1.75,1.31,3.45,2.33,5,4.22,6.43,12.23,8.96,19.31,11.99,11.97,5.11,23.01,13.08,30.01,24.05,7,10.97,9.5,25.17,4.86,37.33-3.04,7.96-8.89,14.7-11.36,22.86-3.77,12.47.9,26-1.05,38.88-2.4,15.88-14.63,28.69-28.31,37.11Z"/>
            <path class="cls-8" d="M-59.43,12.13C-40.53,6.29-16.49-10.47,7.63,9.33c5.75,5.1,10.13,12.94,12.55,19.92,0,0,0,0,0,0,.14.46.29.92.45,1.37.56,1.53,1.23,3.03,2.17,4.4,3.85,5.67,11.02,7.97,17.39,10.79,10.68,4.67,20.49,11.84,26.7,21.63,6.23,9.84,8.46,22.5,4.4,33.37-2.67,7.12-7.8,13.18-9.99,20.48-3.33,11.14.71,23.22-1.01,34.75-2.12,14.18-12.97,25.44-24.71,33.37-4.6,3.11-9.41,5.96-14.46,8.45-12.37,6.1-29.73,10.43-47.24,12.13-27.82,2.7-57.77,1.31-73.62-12.29-24.3-20.85-10.53-39.8-37.12-66.49-26.65-26.76-23.87-71.36,6.66-103.47,30.31-32.03,52.23-9.88,70.77-15.61Z"/>
            <path class="cls-12" d="M-55.75,23.02C-38.68,18.01-17.44,3.15,3.8,19.78c5.17,4.23,9.16,10.85,11.48,16.83,0,0,0,0,0,0,.13.4.28.79.43,1.17.53,1.32,1.16,2.6,2.01,3.79,3.5,4.89,9.81,7.01,15.48,9.59,9.38,4.27,17.96,10.59,23.39,19.2,5.47,8.7,7.42,19.82,3.93,29.42-2.29,6.28-6.71,11.66-8.61,18.1-2.89,9.81.53,20.44-.97,30.61-1.84,12.47-11.32,22.22-21.11,29.64-3.93,2.98-8.03,5.82-12.5,8.25-11.07,5.96-27.22,9.8-43.1,10.68-25.01,1.38-52.62.88-67.14-12.21-20.73-18.68-9.31-34.95-31.89-58.29-22.71-23.47-19.65-62.16,7.1-89.99,26.45-27.53,45.59-8.75,61.95-13.55Z"/>
            <path class="cls-9" d="M-52.07,33.91C-36.83,29.74-18.4,16.76-.02,30.22c4.59,3.35,8.19,8.75,10.42,13.74,0,0,0,0,0,0,.13.33.27.66.42.98.5,1.1,1.09,2.18,1.85,3.19,3.13,4.12,8.59,6.03,13.56,8.39,8.09,3.84,15.44,9.35,20.08,16.78,4.71,7.57,6.38,17.15,3.47,25.46-1.91,5.44-5.62,10.13-7.23,15.72-2.46,8.48.34,17.66-.93,26.48-1.56,10.76-9.67,19.06-17.52,25.91-3.28,2.86-6.65,5.71-10.53,8.04-9.75,5.87-24.7,9.17-38.96,9.22-22.19.08-47.46.48-60.67-12.13-17.21-16.43-8.09-30.12-26.67-50.09-18.78-20.18-15.46-52.99,7.54-76.51,22.56-23.06,38.96-7.61,53.12-11.49Z"/>
            <path class="cls-11" d="M-48.39,44.8c13.42-3.33,29.04-14.43,44.54-4.14,4.01,2.48,7.22,6.66,9.35,10.66,0,0,0,0,0,0,.12.26.26.53.4.79.47.89,1.01,1.76,1.7,2.59,2.77,3.35,7.38,5.05,11.65,7.19,6.8,3.41,12.92,8.11,16.78,14.35,3.95,6.44,5.34,14.47,3,21.51-1.53,4.61-4.53,8.61-5.86,13.34-2.02,7.15.16,14.87-.89,22.34-1.28,9.05-8.01,15.97-13.92,22.17-2.64,2.78-5.28,5.59-8.57,7.84-8.43,5.77-22.18,8.56-34.82,7.77-19.36-1.21-42.3.12-54.19-12.05-13.75-14.08-6.86-25.29-21.45-41.88-14.85-16.9-11.28-43.82,7.98-63.03,18.66-18.6,32.33-6.47,44.3-9.44Z"/>
            <path class="cls-3" d="M-44.71,55.69c11.6-2.48,24.4-11.7,37.04-4.59,3.43,1.61,6.25,4.56,8.28,7.57,0,0,0,0,0,0,.12.2.25.4.38.59.44.67.94,1.34,1.54,1.98,2.4,2.58,6.17,4.07,9.73,5.99,5.52,2.98,10.41,6.86,13.47,11.93,3.2,5.3,4.3,11.79,2.54,17.55-1.15,3.77-3.44,7.09-4.48,10.96-1.58,5.82-.03,12.09-.85,18.2-1,7.35-6.32,12.99-10.32,18.44-2.01,2.73-3.9,5.48-6.6,7.64-7.12,5.69-19.65,7.96-30.68,6.31-16.52-2.47-37.16-.19-47.72-11.98-10.4-11.61-5.64-20.48-16.22-33.68-10.93-13.63-7.11-34.65,8.42-49.55,14.75-14.14,25.72-5.3,35.48-7.38Z"/>
            <path class="cls-4" d="M-41.03,66.58c9.8-1.59,19.76-8.98,29.54-5.03,2.85.74,5.28,2.47,7.21,4.48,0,0,0,0,0,0,.12.13.23.27.36.4.41.45.87.91,1.38,1.38,2.03,1.82,4.96,3.08,7.82,4.79,4.23,2.54,7.88,5.61,10.16,9.5,2.44,4.16,3.26,9.12,2.07,13.6-.78,2.93-2.35,5.56-3.1,8.58-1.14,4.49-.21,9.31-.81,14.07-.72,5.64-3.74,10.63-6.72,14.7-.84,2.95-2.51,5.37-4.63,7.44-5.79,5.63-17.12,7.39-26.54,4.86-13.68-3.68-32.07-.41-41.24-11.9-7.17-8.99-4.41-15.69-11-25.48-7.01-10.4-2.95-25.49,8.86-36.06,10.83-9.7,19.11-4.1,26.65-5.32Z"/>
            <path class="cls-7" d="M-37.35,77.47c8.02-.64,15.13-6.25,22.03-5.48,2.27-.13,4.31.37,6.15,1.39,0,0,0,0,0,0,.11.07.22.14.34.21.38.24.79.49,1.23.78,1.64,1.06,3.75,2.08,5.9,3.59,2.95,2.08,5.36,4.37,6.85,7.08,1.67,3.03,2.21,6.44,1.61,9.64-.4,2.09-1.26,4.04-1.73,6.2-.7,3.16-.4,6.53-.77,9.93-.44,3.93-2.45,7.48-3.12,10.97-.55,2.85-1.12,5.28-2.67,7.23-4.44,5.6-14.61,6.87-22.41,3.4-10.86-4.83-27.19-.45-34.77-11.82-4.14-6.2-3.13-11-5.78-17.28-3.06-7.26,1.17-16.34,9.31-22.58,6.87-5.27,12.52-2.84,17.83-3.26Z"/>
          </g>
        </g>
        <g class="cls-14">
          <g>
            <path class="cls-22" d="M402.73-21.24c6.89-7.61,11.73-17.68,10.82-27.91-1.46-16.39-16.86-29.2-17.58-45.64-.27-6.25,1.66-12.38,3.97-18.19,10.51-26.36,29.91-52.75,22.69-80.2-3.13-11.9-11.08-22-20.11-30.36-9.19-8.51-19.87-15.66-31.82-19.42-35.24-11.07-75.38,11.63-90.75,45.22-7.07,15.46-9.88,32.81-18.64,47.39-11.05,18.4-30.11,30.15-46.76,43.69-5.19,4.22-10.32,8.84-13.21,14.87-2.94,6.13-3.29,13.15-3.24,19.94.09,13.28,1.74,27.27,9.56,38,10.34,14.19,28.77,19.39,45.8,23.67,28.14,7.08,62.07,21.88,91.12,22.05,19.77.11,45.55-19.58,58.14-33.12Z"/>
            <path class="cls-21" d="M284.06-188.34c-3.12,6.52-5.54,13.35-7.93,20.23-2.79,8.02-5.58,16.03-9.89,23.35-4.14,7.02-9.45,13.07-15.38,18.6-8.54,7.98-18.36,14.91-27.51,22.29-4.85,3.91-9.69,8.14-12.5,13.65-2.87,5.6-3.42,12.02-3.52,18.33,0,.36,0,.73-.01,1.1-.08,12,1.79,24.6,8.96,34.22,9.55,12.83,26.29,17.6,41.83,21.47,5.85,1.45,11.98,3.25,18.25,5.17,21.31,6.49,44.41,14.3,64.91,14.47,18.77.22,42.82-16.67,54.97-29.61,6.08-6.47,10.36-15.08,10.23-23.9,0-.6-.04-1.19-.09-1.79-1.28-15.13-15.45-26.95-16.42-42.04-.37-5.74,1.22-11.38,3.24-16.75,8.73-23.19,25.45-46.38,20.93-70.41-.19-1-.41-2.01-.68-3.01-2.86-10.88-10.1-20.13-18.32-27.81-8.3-7.72-17.93-14.24-28.72-17.7-18.15-5.84-37.76-1.83-53.91,8.35-12.17,7.67-22.25,18.89-28.44,31.8Z"/>
          </g>
        </g>
      </g>
    </pattern>
  </defs>
  <rect class="cls-6" width="500" height="500"/>
</svg>