<?xml version="1.0" encoding="UTF-8"?>
<svg id="Layer_1" data-name="Layer 1" xmlns="http://www.w3.org/2000/svg" viewBox="0 0 91.01 324.2">
  <defs>
    <style>
      .cls-1 {
        fill: #666;
      }

      .cls-1, .cls-2, .cls-3, .cls-4, .cls-5 {
        stroke-width: 0px;
      }

      .cls-2 {
        fill: #fbb03b;
      }

      .cls-3 {
        fill: #000;
      }

      .cls-4 {
        fill: #fff;
      }

      .cls-5 {
        fill: #231f20;
      }
    </style>
  </defs>
  <path class="cls-1" d="M67.04,172.5s12.61,25.22-17.58,58.46c-1.56,1.71-2.95,3.59-3.94,5.68-6.17,13.04-.68,30.86-2.48,30.86-2,0-14.5.5-11-19,1.68-9.34,1.5-19.5,7.5-28.5s24.05-39.42,24-41c-.5-17.5-.04-19.06,3.5-6.5Z"/>
  <g>
    <path class="cls-5" d="M67.14,293.8c-5.01-4.79-9.78-9.71-14.04-14.73-1.03-1.26-2.14-2.51-3.1-3.78l-1.49-1.9-1.4-1.91c-.97-1.27-1.76-2.55-2.65-3.82-.78-1.27-1.64-2.55-2.32-3.81-2.96-5.08-4.87-10-5.65-14.51-.78-4.52-.44-8.75,1.3-13.74,1.76-4.96,5.06-10.43,9.21-16.39,4.09-6,9.1-12.45,13.46-20.87,2.13-4.25,4.08-9.07,5.05-14.47,1.04-5.35.88-11.14-.24-16.36-1.16-5.23-3.19-9.88-5.53-13.95-.57-1.05-1.2-2-1.82-2.97-.61-.99-1.27-1.89-1.92-2.79l-.97-1.34-.81-1.07-1.62-2.15c-4.29-5.76-8.26-11.68-11.69-17.79-1.65-3.07-3.28-6.16-4.61-9.31-.72-1.57-1.29-3.16-1.91-4.75-.53-1.59-1.13-3.19-1.54-4.8-1.87-6.43-2.55-12.96-1.71-19.33.83-6.37,3.35-12.56,7.2-18.27,3.84-5.73,8.92-10.94,14.41-15.85,5.5-4.92,11.46-9.55,17.34-14.43,2.94-2.44,5.85-4.96,8.63-7.66,2.78-2.7,5.41-5.61,7.6-8.88,1.08-1.64,2.07-3.35,2.82-5.18.42-.89.69-1.85,1-2.77.23-.96.5-1.9.61-2.87.19-.96.19-1.94.26-2.9-.05-.97,0-1.94-.17-2.89-.18-1.92-.72-3.76-1.29-5.55.76,3.7.88,7.54-.17,11.05-.21.89-.58,1.73-.89,2.58-.4.82-.75,1.66-1.24,2.43-.88,1.58-1.99,3.03-3.17,4.42-2.38,2.75-5.17,5.16-8.12,7.38-2.94,2.23-6.04,4.3-9.2,6.32-6.32,4.04-12.85,7.92-19.23,12.33-6.36,4.42-12.64,9.36-18.08,15.58-2.71,3.11-5.18,6.54-7.25,10.28-2.07,3.74-3.72,7.79-4.83,12-2.24,8.44-2.36,17.33-1.04,25.65.27,2.11.74,4.14,1.16,6.2.5,2.01.97,4.06,1.58,6.03,1.13,3.99,2.56,7.81,4.04,11.62,3.07,7.53,6.68,14.7,10.61,21.62l1.49,2.58.74,1.29.56,1.04c.37.68.75,1.36,1.04,2.03.31.67.66,1.34.89,2,1.09,2.65,1.71,5.16,1.88,7.37.03,1.1.05,2.15-.13,3.15-.03.5-.2,1-.27,1.49-.17.5-.25.99-.46,1.49-.67,1.99-1.85,4.14-3.42,6.46-3.22,4.68-8.07,9.79-13.31,15.64-5.21,5.87-10.97,12.65-15.58,21.42-2.27,4.39-4.2,9.26-5.45,14.43-1.28,5.17-1.8,10.59-1.68,15.86.25,10.59,2.97,20.34,6.5,28.87.86,2.19,1.84,4.21,2.8,6.3,1.01,1.98,1.99,4.05,3.08,5.95l1.6,2.9,1.67,2.8c1.1,1.9,2.28,3.65,3.43,5.48,4.67,7.17,9.68,13.79,14.85,20.15"/>
    <path class="cls-4" d="M63.45,297.18c-5.03-4.97-9.83-10.07-14.13-15.33-1.05-1.32-2.16-2.63-3.13-3.97l-1.51-2-1.42-2.02c-.98-1.34-1.79-2.7-2.7-4.06-.8-1.36-1.67-2.72-2.37-4.09-3.02-5.46-5.02-10.92-5.74-16.1-.74-5.19-.11-10.18,1.95-15.57,2.08-5.39,5.65-11,9.92-16.95,4.22-5.99,9.21-12.28,13.44-20.29,2.07-4.04,3.93-8.56,4.87-13.58,1.01-4.98.89-10.34-.12-15.22-1.05-4.89-2.92-9.3-5.12-13.22-.53-1.01-1.13-1.92-1.72-2.86-.57-.95-1.2-1.83-1.83-2.71l-.92-1.31-.8-1.1-1.61-2.2c-4.25-5.88-8.18-11.95-11.57-18.22-1.63-3.15-3.24-6.32-4.55-9.57-.71-1.61-1.27-3.25-1.88-4.89-.51-1.65-1.1-3.29-1.49-4.96-1.81-6.64-2.4-13.43-1.41-20.03.98-6.6,3.71-12.95,7.75-18.72,4.02-5.78,9.23-10.96,14.81-15.82,5.6-4.87,11.62-9.41,17.55-14.2,2.96-2.39,5.9-4.86,8.69-7.51,2.8-2.64,5.45-5.5,7.66-8.71,1.09-1.61,2.1-3.29,2.86-5.09.42-.88.7-1.82,1.03-2.73.24-.95.52-1.88.64-2.84.2-.95.22-1.92.3-2.88-.03-.96.02-1.93-.13-2.88-.15-1.91-.67-3.76-1.22-5.56.81,3.68.99,7.53-.02,11.09-.2.9-.55,1.75-.86,2.61-.39.83-.73,1.68-1.21,2.47-.87,1.61-1.96,3.09-3.13,4.5-2.36,2.81-5.13,5.27-8.06,7.55-2.93,2.28-6,4.4-9.13,6.46-6.27,4.13-12.74,8.09-19.02,12.57-6.26,4.47-12.41,9.44-17.67,15.61-5.25,6.13-9.48,13.62-11.54,21.84-2.09,8.21-2.12,16.84-.74,24.94.29,2.05.77,4.04,1.2,6.04.51,1.97.99,3.96,1.62,5.88,1.15,3.9,2.6,7.64,4.1,11.36,3.11,7.37,6.76,14.41,10.73,21.19l1.5,2.53.75,1.27.61,1.07c.4.71.81,1.41,1.14,2.11.35.71.72,1.41,1,2.11,1.23,2.8,2.01,5.55,2.28,8.1.08,1.27.15,2.51-.01,3.71-.02.6-.18,1.2-.26,1.79-.17.59-.25,1.18-.47,1.78-.7,2.37-1.97,4.81-3.6,7.35-3.34,5.1-8.22,10.35-13.33,16.22-5.09,5.88-10.58,12.51-14.87,20.86-2.12,4.18-3.89,8.77-5.03,13.61-1.16,4.84-1.61,9.91-1.46,14.84.31,9.91,2.94,19.13,6.41,27.27.84,2.08,1.81,4.02,2.74,6.02,1,1.91,1.96,3.88,3.03,5.71l1.58,2.79,1.65,2.7c1.09,1.83,2.25,3.53,3.39,5.29,4.62,6.93,9.61,13.37,14.76,19.55"/>
    <path class="cls-3" d="M61.61,298.87c-5.04-5.05-9.85-10.25-14.17-15.63-1.05-1.35-2.17-2.69-3.15-4.06l-1.52-2.05-1.43-2.07c-.99-1.38-1.81-2.78-2.72-4.18-.81-1.41-1.68-2.81-2.4-4.22-3.05-5.65-5.1-11.38-5.79-16.9-.71-5.53.05-10.89,2.27-16.49,2.24-5.6,5.95-11.29,10.27-17.23,4.28-5.98,9.26-12.2,13.43-20,2.04-3.93,3.86-8.3,4.78-13.13.99-4.79.9-9.94-.06-14.65-1-4.72-2.79-9.02-4.92-12.85-.51-.99-1.1-1.89-1.67-2.81-.56-.93-1.17-1.8-1.78-2.67l-.9-1.29-.8-1.11-1.6-2.22c-4.23-5.95-8.14-12.08-11.51-18.43-1.62-3.19-3.22-6.4-4.51-9.7-.71-1.64-1.25-3.3-1.86-4.96-.51-1.67-1.09-3.34-1.47-5.03-1.78-6.74-2.33-13.67-1.25-20.38,1.06-6.72,3.9-13.15,8.02-18.94,4.11-5.81,9.38-10.98,15.02-15.81,5.65-4.84,11.7-9.34,17.65-14.08,2.97-2.37,5.92-4.81,8.72-7.44,2.8-2.62,5.47-5.45,7.69-8.63,1.1-1.6,2.11-3.26,2.88-5.05.43-.87.71-1.81,1.04-2.72.25-.94.53-1.86.66-2.83.2-.95.23-1.92.31-2.87-.03-.96.03-1.92-.11-2.87-.14-1.91-.64-3.75-1.18-5.56.84,3.67,1.05,7.52.06,11.1-.2.9-.54,1.76-.85,2.63-.39.84-.72,1.69-1.2,2.48-.86,1.62-1.95,3.12-3.11,4.54-2.35,2.84-5.11,5.33-8.03,7.63-2.92,2.31-5.98,4.45-9.1,6.54-6.24,4.18-12.68,8.18-18.91,12.68-6.21,4.5-12.3,9.48-17.47,15.63-5.16,6.1-9.29,13.51-11.27,21.62-2.01,8.09-1.99,16.6-.58,24.59.3,2.03.79,3.98,1.22,5.97.52,1.94,1,3.91,1.64,5.81,1.16,3.85,2.63,7.55,4.14,11.23,3.13,7.29,6.8,14.26,10.79,20.98l1.51,2.51.76,1.26.63,1.09c.41.72.84,1.43,1.19,2.16.36.72.76,1.44,1.05,2.16,1.3,2.88,2.16,5.75,2.49,8.47.11,1.36.2,2.69.05,3.98-.02.65-.18,1.29-.25,1.94-.17.64-.25,1.28-.48,1.92-.72,2.56-2.03,5.15-3.69,7.79-3.41,5.3-8.29,10.63-13.33,16.51-5.04,5.88-10.38,12.44-14.51,20.58-2.04,4.07-3.73,8.52-4.81,13.2-1.1,4.68-1.51,9.56-1.35,14.33.34,9.58,2.92,18.52,6.36,26.47.83,2.03,1.79,3.93,2.72,5.88.99,1.87,1.94,3.8,3.01,5.59l1.57,2.73,1.64,2.65c1.08,1.79,2.24,3.47,3.38,5.19,4.6,6.81,9.57,13.15,14.72,19.25"/>
    <polyline class="cls-2" points="52.39 307.31 50.02 304.7 46.32 308 48.7 310.69"/>
    <path class="cls-2" d="M36.9,296.56l-2.24-2.96-2.15-3.03,3.8-2.68,2.13,2.92,2.22,2.86-3.75,2.91ZM43.9,305.2c-1.6-1.88-3.19-3.77-4.71-5.72l3.74-3.01c1.51,1.88,3.09,3.71,4.68,5.53l-3.71,3.2Z"/>
    <path class="cls-2" d="M89.07,14.26c.87-2.27,1.35-4.69,1.4-7.13h.1c-.01,2.45-.47,4.89-1.31,7.2l-.19-.07ZM83.24,23.44c1.61-1.82,3.1-3.76,4.29-5.89l.22.12c-1.17,2.16-2.64,4.14-4.24,6l-.27-.23ZM75.23,30.9c1.9-1.53,3.75-3.12,5.49-4.82l.28.29c-1.73,1.74-3.56,3.36-5.45,4.93l-.32-.39ZM66.44,37.48c1.99-1.42,3.96-2.85,5.91-4.32l.34.44c-1.93,1.5-3.89,2.97-5.86,4.42l-.38-.53ZM57.47,43.82l5.99-4.23.41.57-5.92,4.31-.47-.65ZM48.64,50.41c1.92-1.52,3.88-3,5.86-4.43l.51.69c-1.95,1.46-3.88,2.96-5.77,4.49l-.6-.75ZM40.29,57.63c1.77-1.71,3.61-3.34,5.49-4.9l.65.77c-1.85,1.58-3.65,3.22-5.37,4.93l-.78-.79ZM32.88,65.85c1.49-1.97,3.11-3.83,4.81-5.61l.85.79c-1.65,1.78-3.22,3.63-4.65,5.58l-1.01-.76ZM27.04,75.3c1.04-2.25,2.32-4.38,3.68-6.44l1.1.72c-1.3,2.03-2.51,4.12-3.49,6.32l-1.28-.6ZM23.45,85.85c.48-2.44,1.25-4.81,2.1-7.14l1.37.52c-.8,2.27-1.51,4.57-1.94,6.93l-1.53-.31ZM22.39,96.95c-.04-1.24.05-2.48.07-3.72.12-1.24.18-2.48.36-3.71l1.6.2c-.16,1.19-.2,2.39-.3,3.59,0,1.2-.07,2.4-.01,3.6l-1.72.03ZM23.58,108.02c-.26-1.21-.44-2.43-.61-3.66-.2-1.22-.3-2.46-.4-3.69l1.76-.15c.12,1.2.23,2.4.44,3.58.18,1.19.37,2.38.64,3.56l-1.83.37ZM26.45,118.75c-.43-1.16-.75-2.35-1.11-3.53-.38-1.18-.67-2.38-.96-3.58l1.86-.47c.31,1.17.6,2.34.99,3.48.37,1.15.7,2.31,1.14,3.44l-1.91.66ZM30.55,129.06l-1.49-3.38-1.36-3.44,1.93-.75,1.38,3.36,1.51,3.3-1.97.91ZM35.5,138.97c-1.14-2.18-2.34-4.33-3.38-6.56l1.99-.99c1.06,2.18,2.27,4.29,3.42,6.42l-2.03,1.13ZM41.11,148.5c-1.26-2.11-2.6-4.17-3.79-6.33l2.05-1.2c1.2,2.11,2.56,4.13,3.83,6.2l-2.09,1.33ZM46.93,157.74l-.88-1.56-.96-1.52-1.98-3.08,2.11-1.39,2.03,3.06,1.02,1.57.95,1.62-2.29,1.29ZM50.92,167.56c-.54-2.28-1.41-4.48-2.37-6.65l2.42-1.14c1.05,2.28,2.02,4.63,2.64,7.1l-2.69.68ZM51.55,177.94c.31-2.3.3-4.63,0-6.94l2.8-.37c.35,2.53.4,5.13.09,7.68l-2.91-.37ZM48.34,187.89c1.05-2.11,1.91-4.3,2.51-6.54l2.89.74c-.62,2.48-1.54,4.87-2.63,7.15l-2.77-1.35ZM42.67,196.97c1.42-1.94,2.78-3.92,3.98-5.96l2.71,1.58c-1.24,2.18-2.63,4.26-4.06,6.28l-2.62-1.89ZM35.94,205.56c1.54-1.9,3.07-3.79,4.55-5.7l2.61,1.99c-1.48,1.97-3,3.9-4.51,5.82l-2.65-2.11ZM29.1,214.26c1.48-1.98,3-3.93,4.53-5.84l2.69,2.13c-1.5,1.92-2.96,3.84-4.38,5.8l-2.85-2.09ZM22.92,223.61c1.24-2.18,2.59-4.29,4-6.33l2.96,2.03c-1.34,1.99-2.59,4.02-3.74,6.1l-3.22-1.79ZM18.31,233.99c.76-2.43,1.76-4.77,2.85-7.04l3.37,1.62c-.99,2.14-1.89,4.32-2.56,6.57l-3.66-1.14ZM16.22,245.25c.15-2.55.48-5.09,1.09-7.58l3.8.85c-.52,2.28-.79,4.6-.9,6.93l-3.99-.2ZM16.95,256.67c-.27-1.24-.37-2.51-.55-3.77-.1-1.27-.23-2.54-.24-3.82l4.04-.13c.02,1.17.17,2.33.27,3.49.18,1.16.29,2.32.56,3.47l-4.07.76ZM20.01,267.61c-.86-2.36-1.66-4.76-2.25-7.22l4.06-1.04c.58,2.28,1.36,4.52,2.2,6.73l-4.01,1.53ZM24.68,277.86c-.57-1.11-1.16-2.21-1.7-3.34-.52-1.14-1.07-2.27-1.56-3.42l3.98-1.75c.49,1.08,1.02,2.15,1.53,3.22.53,1.07,1.11,2.11,1.67,3.17l-3.91,2.11ZM30.43,287.47c-.69-1.03-1.37-2.07-2.01-3.14-.64-1.07-1.33-2.1-1.92-3.2l3.88-2.27c.58,1.04,1.26,2.04,1.89,3.06.63,1.02,1.3,2.02,1.98,3l-3.82,2.55Z"/>
    <path class="cls-2" d="M90.3,3.48c-.15-1.18-.47-2.32-.76-3.48.27,1.16.58,2.3.71,3.48"/>
  </g>
</svg>