<?xml version="1.0" encoding="UTF-8"?>
<svg id="Layer_1" data-name="Layer 1" xmlns="http://www.w3.org/2000/svg" viewBox="0 0 1019 1120.81">
  <defs>
    <style>
      .cls-1 {
        fill: #4d4d4d;
      }

      .cls-1, .cls-2, .cls-3, .cls-4, .cls-5, .cls-6 {
        stroke-width: 0px;
      }

      .cls-2 {
        fill: #fbb03b;
      }

      .cls-3 {
        fill: #000;
      }

      .cls-4 {
        fill: gray;
      }

      .cls-5 {
        fill: #fff;
      }

      .cls-6 {
        fill: #231f20;
      }
    </style>
  </defs>
  <path class="cls-4" d="M726.57,978.97c-.28,1.15-.47,2.32-.57,3.53-.1,1.22.84-2.8.57-3.53Z"/>
  <path class="cls-4" d="M997.52,890.24s0-.01,0-.02c-.1-.56-.18-1.13-.25-1.7,0-.01,0-.02,0-.04-.07-.57-.13-1.14-.18-1.71h0c-.41-1.05-.79-2.12-1.1-3.21-29.65,12.83-59.23,23.3-80.97,25.93-33,4-153,19-169,32s-24,13-23,23-5,12,0,14c2.08.83,2.95.8,3.26.47.16-.18.26-.15.31,0,11.39-47.56,173.98-46.97,271.68-85.37-.29-1.1-.54-2.23-.73-3.36Z"/>
  <path class="cls-1" d="M709,960.5c3-6-10,2-2,36,7,33,114,75,84,86-9.29,3.41,23-7,23-7,0,0-58.15-51.58-77-65s-31-44-28-50Z"/>
  <g>
    <path class="cls-6" d="M492.2,1120.5c32.04-.51,64.48.15,97.29.29l12.55.02,12.37-.28,24.47-.52c8.22-.2,16.52-.45,24.87-.86,4.17-.2,8.37-.45,12.57-.75,2.1-.13,4.21-.32,6.32-.48l3.04-.27,2.98-.28,12-.8,12.33-.91c8.21-.64,16.42-1.36,24.62-2.15,8.2-.79,16.38-1.65,24.55-2.57l12.25-1.43,5.96-.74,3.18-.37c1.1-.13,2.31-.31,3.46-.47,4.68-.72,9.44-1.78,14.24-3.4,4.79-1.63,9.65-3.84,14.26-6.96,1.15-.79,2.27-1.66,3.38-2.52,1.08-.95,2.17-1.86,3.19-2.88l1.8-1.87c.17-.19.36-.38.52-.58l.44-.62.94-1.18c1.24-1.58,2.35-3.24,3.42-4.91l1.63-2.49.2-.31c.1-.1.1-.22.08-.35l-.04-.75-.07-1.49-.07-1.49-.14-1.48-.14-1.48c-.04-.49-.09-.98-.21-1.47l-.59-2.94-.92-2.89-.23-.72-.31-.7-.62-1.39c-.21-.46-.4-.93-.64-1.39-.29-.43-.5-.86-.76-1.29-1.59-2.73-3.36-5-5.17-6.97-1.8-1.98-3.63-3.7-5.4-5.25-.87-.75-1.75-1.5-2.59-2.18l-2.51-2.04c-.89-.75-1.78-1.38-2.67-2.03l-2.68-1.94c-1.81-1.34-3.5-2.45-5.25-3.67-1.73-1.21-3.48-2.35-5.22-3.51-1.74-1.17-3.48-2.29-5.23-3.41l-5.21-3.33c-13.88-8.8-27.47-17.04-39.52-26.7-1.48-1.23-3.01-2.42-4.44-3.68-1.42-1.28-2.89-2.52-4.29-3.82l-4.12-3.97-3.87-4.08c-.06-.07-.06-.05-.06-.05,0,0-.02,0,0,.01.01,0,.02.02.03.03l-.14-.2-.65-1c-.41-.67-.81-1.34-1.15-2.01-.7-1.35-1.27-2.7-1.69-4.1-.42-1.4-.72-2.83-.86-4.35-.04-.38-.07-.76-.09-1.15-.02-.24,0-.27-.02-.26-.02,0,0,0,0,.01.06-.74.18-1.54.32-2.28.55-3,1.61-5.74,3.27-8.31.83-1.29,1.8-2.53,2.91-3.73l.86-.89c.29-.3.53-.52.8-.78.22-.25.64-.54.97-.81l1.05-.83,1.04-.83,1.13-.82c.76-.54,1.51-1.11,2.28-1.63,1.56-1.02,3.12-2.07,4.75-3,3.24-1.91,6.6-3.65,10.11-5.16,6.98-3.08,14.44-5.41,22.12-7.37,3.83-.97,7.75-1.88,11.64-2.71,3.92-.81,7.9-1.53,11.85-2.3,31.82-5.88,64.22-9.92,96.37-15.85,16.07-2.95,32.07-6.46,47.81-10.86,7.88-2.08,15.65-4.86,23.4-7.04,7.81-2.12,15.93-3.79,23.26-7.42-7.53,3.2-15.61,4.37-23.59,6.06-8.04,1.78-15.77,4.06-23.75,5.68-15.86,3.46-31.89,6.03-47.99,8.03-32.21,4.04-64.69,6.2-97.23,10.29-4.08.56-8.15,1.05-12.25,1.66-4.12.63-8.18,1.33-12.29,2.12-8.2,1.6-16.49,3.65-24.6,6.68-4.06,1.48-8.06,3.25-11.96,5.26-1.96.98-3.86,2.09-5.77,3.19-.95.56-1.86,1.17-2.8,1.76l-1.4.89-1.41.99-1.41.99c-.48.35-.92.61-1.43,1.07-.49.42-1.02.85-1.47,1.26l-1.34,1.23c-1.76,1.68-3.43,3.56-4.93,5.61-3.03,4.09-5.28,8.95-6.49,13.9-.31,1.24-.56,2.46-.75,3.73-.08.51-.16,1.02-.19,1.53-.04.52-.01,1-.02,1.27-.01.63,0,1.27.03,1.9.09,2.55.44,5.15,1.04,7.69.59,2.55,1.46,5.02,2.5,7.35.51,1.17,1.09,2.29,1.68,3.39l.92,1.61.7,1.13c.15.23.29.42.44.63.14.21.33.41.43.54l4.26,5.03,4.41,4.77c1.5,1.56,3.05,3.05,4.58,4.58,1.54,1.51,3.14,2.92,4.72,4.39,12.76,11.48,26.61,20.95,39.69,30.36l4.88,3.53c1.62,1.18,3.23,2.36,4.81,3.55,1.58,1.19,3.18,2.37,4.72,3.58,1.52,1.2,3.17,2.43,4.56,3.6l2.17,1.77c.72.59,1.47,1.17,2.1,1.78l2.12,1.94c.71.64,1.34,1.26,1.98,1.87,2.43,2.39,4.3,4.68,5.07,6.39l.02.03s-.02,0,0-.02c-.01,0,.05-.04,0,.02l-.32.3c-.44.39-.96.73-1.42,1.12-.54.33-1.04.69-1.59,1.02-4.46,2.62-10.7,4.23-17.48,4.85-.87.06-1.68.14-2.61.19l-2.9.17-6.19.41-12.08.71c-8.05.44-16.1.82-24.15,1.13-8.05.31-16.1.55-24.14.71l-12.07.2-12.4.11-3.11.11-3.05.1c-1.96.04-3.91.1-5.88.11-3.93.05-7.87.06-11.84.02-7.92-.07-15.91-.28-23.97-.55l-24.37-.89-12.05-.42-11.86-.71c-32.27-1.99-64.89-4.56-97.97-5.93"/>
    <path class="cls-5" d="M492.27,1115.5c32.16-.3,64.62.57,97.37.92l12.48.1,12.33-.21,24.46-.36c8.21-.14,16.47-.35,24.77-.71,4.15-.18,8.31-.39,12.49-.67,2.08-.12,4.18-.29,6.27-.44,2.09-.15,4.02-.34,6.03-.52l12.04-.72,12.3-.83c8.2-.59,16.38-1.25,24.56-1.99,8.18-.73,16.35-1.54,24.51-2.41l12.23-1.35,5.99-.7,3.15-.34c1.08-.12,2.25-.29,3.37-.44,4.53-.67,9.13-1.68,13.73-3.21,4.59-1.54,9.21-3.62,13.55-6.54,1.08-.74,2.13-1.55,3.18-2.35,1.01-.89,2.04-1.73,2.99-2.69l1.64-1.7c.33-.33.61-.68.87-1.05l.84-1.04c1.11-1.41,2.12-2.86,3.08-4.35l1.46-2.22.18-.28c.09-.09.09-.19.07-.31l-.03-.66-.07-1.33-.07-1.33-.13-1.32-.13-1.32c-.04-.44-.09-.88-.2-1.31l-.55-2.62-.83-2.56-.21-.64-.28-.62-.56-1.24c-.19-.41-.36-.83-.57-1.23-.25-.38-.44-.77-.68-1.15-1.46-2.52-3.1-4.65-4.8-6.53-1.7-1.88-3.44-3.54-5.15-5.05-.85-.73-1.7-1.47-2.52-2.15l-2.47-2.03c-.86-.73-1.74-1.36-2.61-2l-2.62-1.92c-6.89-4.99-13.78-9.51-20.69-13.96-13.79-8.87-27.41-17.25-39.54-27.11-1.49-1.26-3.02-2.47-4.47-3.76-1.44-1.3-2.91-2.58-4.32-3.9l-4.15-4.06-3.91-4.18c-.07-.08-.08-.08-.1-.11-.01-.02-.04-.05-.05-.06,0-.02-.01-.03-.02-.05l-.15-.22-.68-1.07c-.43-.72-.85-1.44-1.21-2.17-.74-1.46-1.34-2.93-1.78-4.46-.44-1.52-.74-3.09-.88-4.72-.04-.41-.07-.82-.08-1.23v-.37c-.02-.06,0-.11.01-.16.07-.8.21-1.64.36-2.44.62-3.22,1.82-6.19,3.63-8.93.9-1.37,1.95-2.69,3.14-3.94l.91-.93c.3-.31.58-.55.87-.84.25-.27.68-.56,1.02-.84l1.09-.84,1.08-.85,1.16-.83c.78-.55,1.55-1.12,2.34-1.64,1.6-1.03,3.2-2.09,4.87-3.02,3.31-1.92,6.74-3.66,10.31-5.17,7.11-3.08,14.66-5.37,22.39-7.29,3.86-.95,7.8-1.84,11.72-2.64,3.94-.79,7.93-1.48,11.89-2.23,31.9-5.68,64.31-9.51,96.47-15.23,16.08-2.84,32.08-6.25,47.83-10.55,7.89-2.03,15.66-4.75,23.44-6.89,7.83-2.07,15.95-3.68,23.3-7.27-7.51,3.25-15.59,4.48-23.55,6.21-8.01,1.82-15.74,4.16-23.71,5.83-15.85,3.57-31.87,6.24-47.97,8.35-32.21,4.25-64.68,6.62-97.14,10.91-4.07.58-8.12,1.1-12.2,1.73-4.09.65-8.14,1.37-12.22,2.19-8.14,1.64-16.34,3.72-24.33,6.75-4,1.49-7.93,3.25-11.75,5.25-1.93.97-3.79,2.08-5.65,3.17-.93.56-1.83,1.16-2.74,1.74l-1.37.89-1.37.97-1.37.97c-.46.34-.9.6-1.38,1.04-.46.4-.96.81-1.39,1.21l-1.28,1.19c-1.69,1.63-3.28,3.43-4.71,5.4-2.88,3.92-5,8.55-6.13,13.28-.29,1.19-.53,2.35-.7,3.57-.07.45-.14.91-.17,1.35-.04.46,0,.89-.02,1.16,0,.6.01,1.21.04,1.82.1,2.43.44,4.91,1.02,7.32.57,2.42,1.4,4.77,2.41,6.99.5,1.12,1.05,2.19,1.62,3.24l.89,1.55.64,1.02c.13.2.26.38.39.56.12.19.29.37.39.48l4.22,4.93,4.38,4.68c1.49,1.53,3.03,2.99,4.54,4.49,1.53,1.48,3.12,2.87,4.69,4.31,12.68,11.28,26.5,20.61,39.67,29.96,6.58,4.66,13.09,9.39,19.18,14.23l2.23,1.79c.74.6,1.5,1.18,2.16,1.81l2.17,1.95c.72.65,1.38,1.28,2.05,1.9,2.55,2.47,4.65,4.92,5.68,7.04.25.44.41.83.51,1.28.04.22.09.44.09.67-.01.11.05.24-.02.33l-.19.28c-.12.19-.27.36-.42.54-.06.09-.16.18-.23.23-.05.04-.04.05-.12.13l-.37.35c-.5.46-1.09.86-1.61,1.32-.6.39-1.18.8-1.79,1.19-5,3.02-11.64,4.75-18.7,5.46-.91.07-1.75.16-2.7.22l-2.93.19-6.17.44-12.1.79c-8.06.5-16.13.93-24.19,1.29-8.06.36-16.13.65-24.2.87l-12.1.28-12.36.19-6.15.25c-1.98.05-3.94.13-5.93.15-3.96.08-7.93.11-11.92.1-7.97-.01-15.99-.17-24.07-.39l-24.38-.73-12.09-.34-11.93-.63c-32.33-1.79-64.93-4.14-97.9-5.31"/>
    <path class="cls-3" d="M492.3,1113c32.21-.2,64.68.79,97.41,1.23l12.44.14,12.32-.17,24.45-.28c8.2-.12,16.44-.3,24.72-.63,4.14-.16,8.29-.37,12.45-.63,2.08-.11,4.16-.28,6.24-.42l6.04-.5,12.07-.68,12.28-.79c8.19-.56,16.37-1.2,24.54-1.91,8.17-.71,16.33-1.49,24.48-2.33l12.22-1.31,6-.68,3.13-.33c1.07-.11,2.22-.28,3.32-.42,4.46-.65,8.97-1.63,13.47-3.11,4.49-1.49,8.98-3.51,13.2-6.33,1.05-.71,2.07-1.5,3.08-2.27.97-.86,1.97-1.67,2.89-2.59l1.56-1.61c.31-.31.57-.64.82-.98l.79-.98c1.04-1.32,2.01-2.68,2.9-4.07l1.37-2.08.17-.26c.08-.08.08-.18.07-.29l-.03-.62-.06-1.25-.06-1.25-.13-1.24c-.11-.82-.12-1.65-.32-2.47l-.52-2.45-.79-2.4-.2-.6-.26-.58-.52-1.16c-.18-.38-.34-.78-.53-1.15-.24-.36-.42-.72-.63-1.08-2.79-4.82-6.32-8.25-9.65-11.25-1.7-1.49-3.29-2.79-4.94-4.15-.85-.72-1.71-1.35-2.58-1.99l-2.59-1.91c-6.84-4.98-13.69-9.52-20.58-13.98-13.75-8.9-27.38-17.35-39.55-27.31-6.06-4.96-11.84-10.34-16.93-16.08-.13-.13-.13-.15-.19-.23-.01-.03-.03-.06-.05-.09l-.16-.24-.7-1.1c-.44-.74-.87-1.49-1.24-2.24-.76-1.51-1.38-3.05-1.82-4.64-.45-1.59-.76-3.22-.89-4.91-.03-.42-.07-.84-.08-1.27-.01-.25-.01-.35-.01-.43,0-.09.03-.16.04-.24.08-.83.22-1.69.39-2.52.66-3.33,1.92-6.42,3.81-9.24.94-1.41,2.03-2.76,3.25-4.04.62-.64,1.26-1.27,1.85-1.81.62-.57,1.44-1.13,2.15-1.71l1.1-.86,1.18-.83c.79-.55,1.56-1.12,2.37-1.65,1.62-1.04,3.23-2.09,4.92-3.03,3.35-1.93,6.82-3.67,10.42-5.18,7.17-3.07,14.77-5.35,22.53-7.26,3.88-.94,7.82-1.82,11.75-2.61,3.95-.78,7.94-1.46,11.92-2.2,31.94-5.58,64.35-9.31,96.52-14.92,16.08-2.79,32.08-6.15,47.84-10.39,7.9-2,15.66-4.7,23.46-6.81,7.84-2.05,15.95-3.63,23.31-7.2-7.49,3.28-15.58,4.53-23.54,6.28-7.99,1.85-15.73,4.21-23.69,5.9-15.84,3.62-31.86,6.34-47.96,8.51-32.2,4.35-64.67,6.82-97.09,11.21-4.06.59-8.11,1.12-12.18,1.77-4.08.66-8.12,1.4-12.18,2.22-8.11,1.66-16.26,3.76-24.19,6.79-3.97,1.49-7.86,3.25-11.65,5.24-1.91.97-3.75,2.07-5.6,3.16-.92.56-1.81,1.16-2.71,1.74l-1.35.88-1.35.96c-.9.67-1.79,1.23-2.7,1.99-.95.79-1.79,1.57-2.61,2.36-1.65,1.6-3.2,3.37-4.6,5.29-2.8,3.83-4.86,8.35-5.95,12.97-.28,1.16-.51,2.3-.68,3.49-.06.42-.13.85-.16,1.27-.03.43,0,.84-.01,1.1,0,.59.02,1.18.04,1.78.1,2.38.44,4.78,1.01,7.14.56,2.36,1.38,4.64,2.36,6.81.49,1.09,1.03,2.13,1.59,3.16l.88,1.51.6.97c.23.35.5.75.73.99,5.48,6.66,11.43,12.63,17.76,18.23,12.64,11.18,26.45,20.44,39.66,29.75,6.6,4.64,13.14,9.36,19.29,14.21l2.26,1.8c.75.6,1.52,1.19,2.19,1.82,1.45,1.28,2.95,2.62,4.27,3.87,2.61,2.51,4.82,5.03,5.99,7.36.36.63.61,1.23.75,1.91.06.33.14.67.14,1.01-.02.16.07.35-.03.49l-.29.42c-.18.29-.41.54-.62.8-.1.13-.23.26-.35.36l-.18.19-.39.38c-.53.5-1.15.93-1.71,1.41-.63.42-1.24.86-1.89,1.27-5.27,3.22-12.11,5-19.32,5.77-.92.08-1.79.18-2.75.24l-2.95.2-6.15.46-12.11.83c-8.07.52-16.14.98-24.22,1.37-8.07.39-16.15.71-24.22.95l-12.11.32-12.34.22-6.14.27c-1.98.06-3.96.14-5.95.17-3.97.1-7.96.14-11.96.14-8,.01-16.03-.12-24.12-.31l-24.39-.65-12.1-.3-11.97-.6c-32.36-1.68-64.95-3.93-97.86-4.99"/>
    <polyline class="cls-2" points="492.47 1100.5 500.12 1100.6 500.21 1095.65 492.53 1095.5"/>
    <path class="cls-2" d="M531.83,1096.61l15.79.62-.17,4.64-15.78-.52.16-4.75ZM508.12,1095.84l15.81.48-.15,4.8-15.77-.38.11-4.9Z"/>
    <path class="cls-2" d="M959.35,896.58c5.05-1.51,10.22-2.56,15.35-3.74l.02.1c-5.12,1.22-10.28,2.3-15.31,3.84l-.06-.19ZM936.43,902.53c2.58-.54,5.12-1.23,7.67-1.85,2.55-.65,5.12-1.24,7.64-1.98l.07.24c-2.52.76-5.09,1.37-7.64,2.03-2.56.64-5.09,1.35-7.67,1.9l-.08-.34ZM913.22,907.27l3.89-.69,3.87-.77c2.58-.52,5.17-1.01,7.74-1.56l.08.39c-2.57.57-5.16,1.07-7.74,1.61l-3.87.79-3.88.72-.09-.5ZM889.85,911.07c5.21-.74,10.41-1.59,15.6-2.43l.09.55c-5.19.87-10.39,1.76-15.6,2.53l-.1-.65ZM866.37,914.25l7.83-1,7.82-1.06.1.7-7.82,1.11-7.83,1.05-.1-.8ZM842.86,917.15l15.68-1.92.11.85-15.67,2.02-.12-.95ZM819.34,920.1l15.68-1.98.13,1-15.65,2.08-.15-1.1ZM795.87,923.43c5.21-.8,10.42-1.56,15.64-2.27l.16,1.15c-5.21.75-10.41,1.54-15.61,2.37l-.2-1.25ZM772.52,927.71c5.15-1.16,10.33-2.17,15.54-3.05l.22,1.29c-5.17.91-10.33,1.95-15.44,3.13l-.32-1.38ZM749.75,934.6c4.92-1.98,9.97-3.61,15.07-4.99l.39,1.41c-5.05,1.4-10.03,3.04-14.87,5.03l-.59-1.45ZM728.85,946.06c4.32-3.12,8.88-5.86,13.64-8.21l.72,1.45c-4.67,2.34-9.14,5.07-13.34,8.14l-1.02-1.38ZM714.98,965.4c.69-2.62,1.7-5.16,3.02-7.53,1.33-2.36,2.95-4.55,4.78-6.53l1.3,1.2c-1.73,1.9-3.25,3.98-4.49,6.21-1.23,2.24-2.16,4.64-2.8,7.11l-1.81-.46ZM719.33,988.77c-2.85-4.56-4.76-9.84-5.16-15.25l1.91-.16c.42,5.11,2.22,10.01,4.97,14.35l-1.72,1.06ZM735.93,1006.04c-2.02-1.71-3.91-3.57-5.84-5.39-1.92-1.83-3.72-3.77-5.57-5.67l1.51-1.41c1.84,1.86,3.63,3.76,5.53,5.56,1.92,1.78,3.8,3.6,5.8,5.28l-1.43,1.63ZM754.62,1020.77c-2.14-1.54-4.27-3.12-6.39-4.7-2.08-1.64-4.21-3.2-6.24-4.9l1.4-1.73c2.01,1.67,4.14,3.21,6.21,4.82,2.11,1.56,4.23,3.1,6.37,4.62l-1.35,1.89ZM774.17,1034.22c-4.36-2.95-8.74-5.88-13.07-8.89l1.34-1.96c4.33,2.97,8.73,5.87,13.11,8.79l-1.38,2.05ZM793.54,1047.76c-4.2-3.13-8.53-6.12-12.85-9.11l1.42-2.09c4.36,2.97,8.72,5.94,12.98,9.08l-1.55,2.12ZM811.15,1063.04c-1.62-1.95-3.46-3.75-5.39-5.49-.96-.87-1.95-1.72-2.95-2.58l-1.48-1.27c-.5-.42-1.03-.8-1.54-1.2l1.67-2.09c.53.41,1.06.79,1.58,1.22l1.52,1.29c1.01.85,2.02,1.71,3.01,2.6,1.99,1.77,3.94,3.65,5.7,5.74l-2.13,1.78ZM812.02,1081.53c1.78-1.67,3.17-3.48,4.45-5.46,0-2.34-.48-4.68-1.41-6.83l2.7-.88c1.16,2.7,1.68,5.61,1.7,8.52-.39.61-.81,1.21-1.21,1.81-.39.62-.84,1.19-1.3,1.75-.46.56-.9,1.15-1.4,1.68l-1.5,1.53-2.02-2.12ZM791.65,1091.31c5.03-1.07,9.93-2.75,14.31-5.29l1.51,2.57c-4.72,2.77-9.91,4.58-15.15,5.73l-.66-3.01ZM768.32,1093.96l15.69-1.42.36,3.11-15.76,1.53-.29-3.22ZM744.72,1095.81c5.25-.37,10.49-.76,15.73-1.19l.28,3.27c-5.25.46-10.51.89-15.76,1.29l-.25-3.38ZM721.1,1097.26c5.25-.28,10.5-.58,15.75-.93l.23,3.43c-5.26.38-10.52.71-15.78,1.03l-.2-3.53ZM697.46,1098.31c5.26-.19,10.51-.41,15.76-.66l.18,3.58c-5.26.29-10.53.54-15.8.76l-.14-3.68ZM673.79,1099.35c2.62-.09,5.24-.21,7.86-.35,2.63-.11,5.26-.37,7.9-.42l.18,3.73c-2.62.07-5.23.34-7.87.47-2.64.15-5.28.29-7.92.4l-.15-3.84ZM650.17,1099.74c5.25-.01,10.51-.05,15.75-.17l.1,3.89c-5.28.15-10.56.22-15.83.27l-.02-3.99ZM626.5,1099.57l15.78.15v4.04s-15.82-.05-15.82-.05l.04-4.14ZM602.82,1099.35l15.78.13-.03,4.19-15.81-.03.06-4.29ZM579.19,1098.51l15.77.58-.13,4.34-15.8-.48.16-4.44ZM555.52,1097.55l15.78.65-.17,4.49-15.79-.55.18-4.59Z"/>
    <path class="cls-2" d="M982.35,890.87c2.44-.77,4.84-1.66,7.16-2.73-2.33,1.06-4.73,1.94-7.18,2.69"/>
  </g>
</svg>